<mxfile host="Electron" modified="2024-03-08T00:34:47.430Z" agent="Mozilla/5.0 (Windows NT 10.0; Win64; x64) AppleWebKit/537.36 (KHTML, like Gecko) draw.io/23.1.5 Chrome/120.0.6099.109 Electron/28.1.0 Safari/537.36" etag="ovnWrNzu_1GMoQCLgeS3" version="23.1.5" type="device">
  <diagram name="Page-1" id="x8ljWiJV3iV-alqWqLRZ">
    <mxGraphModel dx="502" dy="263" grid="1" gridSize="10" guides="1" tooltips="1" connect="1" arrows="1" fold="1" page="1" pageScale="1" pageWidth="1920" pageHeight="1200" math="0" shadow="0">
      <root>
        <mxCell id="0" />
        <mxCell id="1" parent="0" />
        <mxCell id="oAigmpeFDJN5EbFYPB60-185" value="teacher_&lt;br&gt;payment_&lt;br&gt;id" style="ellipse;whiteSpace=wrap;html=1;align=center;fontStyle=4;" vertex="1" parent="1">
          <mxGeometry x="10" y="800" width="60" height="50" as="geometry" />
        </mxCell>
        <mxCell id="oAigmpeFDJN5EbFYPB60-109" value="" style="verticalLabelPosition=bottom;verticalAlign=top;html=1;shape=mxgraph.basic.rect;fillColor2=none;strokeWidth=1;size=20;indent=5;dashed=1;dashPattern=12 12;" vertex="1" parent="1">
          <mxGeometry x="130" y="350" width="130" height="630" as="geometry" />
        </mxCell>
        <mxCell id="oAigmpeFDJN5EbFYPB60-7" value="Student" style="whiteSpace=wrap;html=1;align=center;" vertex="1" parent="1">
          <mxGeometry x="140" y="370" width="100" height="80" as="geometry" />
        </mxCell>
        <mxCell id="oAigmpeFDJN5EbFYPB60-8" value="Teacher" style="whiteSpace=wrap;html=1;align=center;" vertex="1" parent="1">
          <mxGeometry x="140" y="710" width="100" height="40" as="geometry" />
        </mxCell>
        <mxCell id="oAigmpeFDJN5EbFYPB60-9" value="Staff Member" style="whiteSpace=wrap;html=1;align=center;" vertex="1" parent="1">
          <mxGeometry x="140" y="920" width="100" height="40" as="geometry" />
        </mxCell>
        <mxCell id="oAigmpeFDJN5EbFYPB60-10" value="Class" style="whiteSpace=wrap;html=1;align=center;" vertex="1" parent="1">
          <mxGeometry x="730" y="390" width="100" height="40" as="geometry" />
        </mxCell>
        <mxCell id="oAigmpeFDJN5EbFYPB60-11" value="Major" style="whiteSpace=wrap;html=1;align=center;" vertex="1" parent="1">
          <mxGeometry x="440" y="390" width="100" height="40" as="geometry" />
        </mxCell>
        <mxCell id="oAigmpeFDJN5EbFYPB60-12" value="Class Section" style="whiteSpace=wrap;html=1;align=center;" vertex="1" parent="1">
          <mxGeometry x="990" y="390" width="100" height="40" as="geometry" />
        </mxCell>
        <mxCell id="oAigmpeFDJN5EbFYPB60-13" value="Module" style="whiteSpace=wrap;html=1;align=center;" vertex="1" parent="1">
          <mxGeometry x="1250" y="280" width="100" height="40" as="geometry" />
        </mxCell>
        <mxCell id="oAigmpeFDJN5EbFYPB60-14" value="Document" style="whiteSpace=wrap;html=1;align=center;" vertex="1" parent="1">
          <mxGeometry x="1540" y="280" width="100" height="40" as="geometry" />
        </mxCell>
        <mxCell id="oAigmpeFDJN5EbFYPB60-15" value="Assignment" style="whiteSpace=wrap;html=1;align=center;" vertex="1" parent="1">
          <mxGeometry x="1540" y="200" width="100" height="40" as="geometry" />
        </mxCell>
        <mxCell id="oAigmpeFDJN5EbFYPB60-16" value="has" style="shape=associativeEntity;whiteSpace=wrap;html=1;align=center;" vertex="1" parent="1">
          <mxGeometry x="310" y="390" width="100" height="40" as="geometry" />
        </mxCell>
        <mxCell id="oAigmpeFDJN5EbFYPB60-17" value="" style="edgeStyle=entityRelationEdgeStyle;fontSize=12;html=1;endArrow=ERzeroToMany;endFill=1;rounded=0;exitX=0;exitY=0.5;exitDx=0;exitDy=0;" edge="1" parent="1" source="oAigmpeFDJN5EbFYPB60-16" target="oAigmpeFDJN5EbFYPB60-7">
          <mxGeometry width="100" height="100" relative="1" as="geometry">
            <mxPoint x="280" y="240" as="sourcePoint" />
            <mxPoint x="330" y="240" as="targetPoint" />
            <Array as="points">
              <mxPoint x="270" y="270" />
              <mxPoint x="350" y="290" />
              <mxPoint x="310" y="280" />
              <mxPoint x="280" y="260" />
              <mxPoint x="570" y="300" />
              <mxPoint x="550" y="310" />
              <mxPoint x="350" y="250" />
              <mxPoint x="320" y="280" />
              <mxPoint x="280" y="270" />
            </Array>
          </mxGeometry>
        </mxCell>
        <mxCell id="oAigmpeFDJN5EbFYPB60-18" value="" style="edgeStyle=entityRelationEdgeStyle;fontSize=12;html=1;endArrow=ERzeroToMany;endFill=1;rounded=0;exitX=1;exitY=0.5;exitDx=0;exitDy=0;entryX=0;entryY=0.5;entryDx=0;entryDy=0;" edge="1" parent="1" source="oAigmpeFDJN5EbFYPB60-16" target="oAigmpeFDJN5EbFYPB60-11">
          <mxGeometry width="100" height="100" relative="1" as="geometry">
            <mxPoint x="436.5" y="546" as="sourcePoint" />
            <mxPoint x="363.5" y="520" as="targetPoint" />
            <Array as="points">
              <mxPoint x="393.5" y="570" />
              <mxPoint x="473.5" y="590" />
              <mxPoint x="433.5" y="580" />
              <mxPoint x="403.5" y="560" />
              <mxPoint x="693.5" y="600" />
              <mxPoint x="673.5" y="610" />
              <mxPoint x="473.5" y="550" />
              <mxPoint x="443.5" y="580" />
              <mxPoint x="403.5" y="570" />
            </Array>
          </mxGeometry>
        </mxCell>
        <mxCell id="oAigmpeFDJN5EbFYPB60-19" value="requires" style="shape=associativeEntity;whiteSpace=wrap;html=1;align=center;" vertex="1" parent="1">
          <mxGeometry x="570" y="390" width="100" height="40" as="geometry" />
        </mxCell>
        <mxCell id="oAigmpeFDJN5EbFYPB60-20" value="" style="edgeStyle=entityRelationEdgeStyle;fontSize=12;html=1;endArrow=ERzeroToMany;endFill=1;rounded=0;exitX=1;exitY=0.5;exitDx=0;exitDy=0;" edge="1" parent="1" source="oAigmpeFDJN5EbFYPB60-19" target="oAigmpeFDJN5EbFYPB60-10">
          <mxGeometry width="100" height="100" relative="1" as="geometry">
            <mxPoint x="810" y="390" as="sourcePoint" />
            <mxPoint x="540" y="400" as="targetPoint" />
            <Array as="points">
              <mxPoint x="403.5" y="580" />
              <mxPoint x="483.5" y="600" />
              <mxPoint x="443.5" y="590" />
              <mxPoint x="413.5" y="570" />
              <mxPoint x="703.5" y="610" />
              <mxPoint x="683.5" y="620" />
              <mxPoint x="483.5" y="560" />
              <mxPoint x="453.5" y="590" />
              <mxPoint x="413.5" y="580" />
            </Array>
          </mxGeometry>
        </mxCell>
        <mxCell id="oAigmpeFDJN5EbFYPB60-21" value="" style="edgeStyle=entityRelationEdgeStyle;fontSize=12;html=1;endArrow=ERzeroToMany;endFill=1;rounded=0;entryX=1;entryY=0.5;entryDx=0;entryDy=0;exitX=0;exitY=0.5;exitDx=0;exitDy=0;" edge="1" parent="1" source="oAigmpeFDJN5EbFYPB60-19" target="oAigmpeFDJN5EbFYPB60-11">
          <mxGeometry width="100" height="100" relative="1" as="geometry">
            <mxPoint x="640" y="440" as="sourcePoint" />
            <mxPoint x="280" y="420" as="targetPoint" />
            <Array as="points">
              <mxPoint x="310" y="450" />
              <mxPoint x="390" y="470" />
              <mxPoint x="440" y="480" />
              <mxPoint x="350" y="460" />
              <mxPoint x="320" y="440" />
              <mxPoint x="610" y="480" />
              <mxPoint x="590" y="490" />
              <mxPoint x="390" y="430" />
              <mxPoint x="360" y="460" />
              <mxPoint x="320" y="450" />
            </Array>
          </mxGeometry>
        </mxCell>
        <mxCell id="oAigmpeFDJN5EbFYPB60-22" value="has" style="shape=rhombus;perimeter=rhombusPerimeter;whiteSpace=wrap;html=1;align=center;" vertex="1" parent="1">
          <mxGeometry x="860" y="390" width="100" height="40" as="geometry" />
        </mxCell>
        <mxCell id="oAigmpeFDJN5EbFYPB60-23" value="" style="edgeStyle=entityRelationEdgeStyle;fontSize=12;html=1;endArrow=ERzeroToMany;endFill=1;rounded=0;entryX=0;entryY=0.5;entryDx=0;entryDy=0;exitX=1;exitY=0.5;exitDx=0;exitDy=0;" edge="1" parent="1" source="oAigmpeFDJN5EbFYPB60-22" target="oAigmpeFDJN5EbFYPB60-12">
          <mxGeometry width="100" height="100" relative="1" as="geometry">
            <mxPoint x="1130" y="220" as="sourcePoint" />
            <mxPoint x="1170" y="280" as="targetPoint" />
            <Array as="points">
              <mxPoint x="683.5" y="470" />
              <mxPoint x="763.5" y="490" />
              <mxPoint x="723.5" y="480" />
              <mxPoint x="693.5" y="460" />
              <mxPoint x="983.5" y="500" />
              <mxPoint x="963.5" y="510" />
              <mxPoint x="763.5" y="450" />
              <mxPoint x="733.5" y="480" />
              <mxPoint x="693.5" y="470" />
            </Array>
          </mxGeometry>
        </mxCell>
        <mxCell id="oAigmpeFDJN5EbFYPB60-24" value="" style="edgeStyle=entityRelationEdgeStyle;fontSize=12;html=1;endArrow=ERzeroToOne;endFill=1;rounded=0;entryX=1;entryY=0.5;entryDx=0;entryDy=0;exitX=0;exitY=0.5;exitDx=0;exitDy=0;" edge="1" parent="1" source="oAigmpeFDJN5EbFYPB60-22" target="oAigmpeFDJN5EbFYPB60-10">
          <mxGeometry width="100" height="100" relative="1" as="geometry">
            <mxPoint x="690" y="420" as="sourcePoint" />
            <mxPoint x="790" y="320" as="targetPoint" />
          </mxGeometry>
        </mxCell>
        <mxCell id="oAigmpeFDJN5EbFYPB60-26" value="takes" style="shape=associativeEntity;whiteSpace=wrap;html=1;align=center;" vertex="1" parent="1">
          <mxGeometry x="570" y="540" width="100" height="40" as="geometry" />
        </mxCell>
        <mxCell id="oAigmpeFDJN5EbFYPB60-27" value="" style="edgeStyle=entityRelationEdgeStyle;fontSize=12;html=1;endArrow=ERzeroToMany;endFill=1;rounded=0;exitX=0;exitY=0.5;exitDx=0;exitDy=0;entryX=1;entryY=1;entryDx=0;entryDy=0;" edge="1" parent="1" source="oAigmpeFDJN5EbFYPB60-26" target="oAigmpeFDJN5EbFYPB60-7">
          <mxGeometry width="100" height="100" relative="1" as="geometry">
            <mxPoint x="400" y="390" as="sourcePoint" />
            <mxPoint x="360" y="390" as="targetPoint" />
            <Array as="points">
              <mxPoint x="390" y="420" />
              <mxPoint x="470" y="440" />
              <mxPoint x="430" y="430" />
              <mxPoint x="400" y="410" />
              <mxPoint x="690" y="450" />
              <mxPoint x="670" y="460" />
              <mxPoint x="470" y="400" />
              <mxPoint x="440" y="430" />
              <mxPoint x="400" y="420" />
            </Array>
          </mxGeometry>
        </mxCell>
        <mxCell id="oAigmpeFDJN5EbFYPB60-29" value="" style="edgeStyle=entityRelationEdgeStyle;fontSize=12;html=1;endArrow=ERzeroToMany;endFill=1;rounded=0;exitX=1;exitY=0.5;exitDx=0;exitDy=0;entryX=0;entryY=0.75;entryDx=0;entryDy=0;" edge="1" parent="1" source="oAigmpeFDJN5EbFYPB60-26" target="oAigmpeFDJN5EbFYPB60-12">
          <mxGeometry width="100" height="100" relative="1" as="geometry">
            <mxPoint x="745" y="460" as="sourcePoint" />
            <mxPoint x="435" y="390" as="targetPoint" />
            <Array as="points">
              <mxPoint x="555" y="550" />
              <mxPoint x="635" y="570" />
              <mxPoint x="595" y="560" />
              <mxPoint x="565" y="540" />
              <mxPoint x="855" y="580" />
              <mxPoint x="835" y="590" />
              <mxPoint x="635" y="530" />
              <mxPoint x="605" y="560" />
              <mxPoint x="565" y="550" />
            </Array>
          </mxGeometry>
        </mxCell>
        <mxCell id="oAigmpeFDJN5EbFYPB60-30" value="teaches" style="shape=associativeEntity;whiteSpace=wrap;html=1;align=center;" vertex="1" parent="1">
          <mxGeometry x="560" y="640" width="100" height="40" as="geometry" />
        </mxCell>
        <mxCell id="oAigmpeFDJN5EbFYPB60-31" value="" style="edgeStyle=entityRelationEdgeStyle;fontSize=12;html=1;endArrow=ERzeroToMany;endFill=1;rounded=0;exitX=0;exitY=0.5;exitDx=0;exitDy=0;entryX=1;entryY=0;entryDx=0;entryDy=0;" edge="1" parent="1" source="oAigmpeFDJN5EbFYPB60-30" target="oAigmpeFDJN5EbFYPB60-8">
          <mxGeometry width="100" height="100" relative="1" as="geometry">
            <mxPoint x="580" y="310" as="sourcePoint" />
            <mxPoint x="280" y="270" as="targetPoint" />
            <Array as="points">
              <mxPoint x="400" y="430" />
              <mxPoint x="480" y="450" />
              <mxPoint x="340" y="330" />
              <mxPoint x="440" y="440" />
              <mxPoint x="410" y="420" />
              <mxPoint x="700" y="460" />
              <mxPoint x="680" y="470" />
              <mxPoint x="480" y="410" />
              <mxPoint x="450" y="440" />
              <mxPoint x="410" y="430" />
            </Array>
          </mxGeometry>
        </mxCell>
        <mxCell id="oAigmpeFDJN5EbFYPB60-32" value="" style="edgeStyle=entityRelationEdgeStyle;fontSize=12;html=1;endArrow=ERzeroToMany;endFill=1;rounded=0;exitX=1;exitY=0.5;exitDx=0;exitDy=0;entryX=0;entryY=1;entryDx=0;entryDy=0;" edge="1" parent="1" source="oAigmpeFDJN5EbFYPB60-30" target="oAigmpeFDJN5EbFYPB60-12">
          <mxGeometry width="100" height="100" relative="1" as="geometry">
            <mxPoint x="680" y="310" as="sourcePoint" />
            <mxPoint x="990" y="285" as="targetPoint" />
            <Array as="points">
              <mxPoint x="565" y="560" />
              <mxPoint x="645" y="580" />
              <mxPoint x="605" y="570" />
              <mxPoint x="575" y="550" />
              <mxPoint x="865" y="590" />
              <mxPoint x="845" y="600" />
              <mxPoint x="645" y="540" />
              <mxPoint x="615" y="570" />
              <mxPoint x="575" y="560" />
            </Array>
          </mxGeometry>
        </mxCell>
        <mxCell id="oAigmpeFDJN5EbFYPB60-33" value="Teacher Role" style="whiteSpace=wrap;html=1;align=center;" vertex="1" parent="1">
          <mxGeometry x="490" y="760" width="100" height="40" as="geometry" />
        </mxCell>
        <mxCell id="oAigmpeFDJN5EbFYPB60-34" value="has" style="shape=associativeEntity;whiteSpace=wrap;html=1;align=center;" vertex="1" parent="1">
          <mxGeometry x="330" y="760" width="100" height="40" as="geometry" />
        </mxCell>
        <mxCell id="oAigmpeFDJN5EbFYPB60-36" value="" style="edgeStyle=orthogonalEdgeStyle;fontSize=12;html=1;endArrow=ERzeroToMany;endFill=1;rounded=0;exitX=0;exitY=0.5;exitDx=0;exitDy=0;entryX=1;entryY=0.25;entryDx=0;entryDy=0;" edge="1" parent="1" source="oAigmpeFDJN5EbFYPB60-34" target="oAigmpeFDJN5EbFYPB60-8">
          <mxGeometry width="100" height="100" relative="1" as="geometry">
            <mxPoint x="330" y="290" as="sourcePoint" />
            <mxPoint x="290" y="290" as="targetPoint" />
            <Array as="points">
              <mxPoint x="320" y="780" />
              <mxPoint x="320" y="720" />
            </Array>
          </mxGeometry>
        </mxCell>
        <mxCell id="oAigmpeFDJN5EbFYPB60-37" value="" style="edgeStyle=entityRelationEdgeStyle;fontSize=12;html=1;endArrow=ERzeroToMany;endFill=1;rounded=0;exitX=1;exitY=0.5;exitDx=0;exitDy=0;entryX=0;entryY=0.5;entryDx=0;entryDy=0;" edge="1" parent="1" source="oAigmpeFDJN5EbFYPB60-34" target="oAigmpeFDJN5EbFYPB60-33">
          <mxGeometry width="100" height="100" relative="1" as="geometry">
            <mxPoint x="680" y="510" as="sourcePoint" />
            <mxPoint x="990" y="460" as="targetPoint" />
            <Array as="points">
              <mxPoint x="575" y="710" />
              <mxPoint x="655" y="730" />
              <mxPoint x="615" y="720" />
              <mxPoint x="585" y="700" />
              <mxPoint x="875" y="740" />
              <mxPoint x="855" y="750" />
              <mxPoint x="655" y="690" />
              <mxPoint x="625" y="720" />
              <mxPoint x="585" y="710" />
            </Array>
          </mxGeometry>
        </mxCell>
        <mxCell id="oAigmpeFDJN5EbFYPB60-38" value="Staff Role" style="whiteSpace=wrap;html=1;align=center;" vertex="1" parent="1">
          <mxGeometry x="560" y="990" width="100" height="40" as="geometry" />
        </mxCell>
        <mxCell id="oAigmpeFDJN5EbFYPB60-39" value="has" style="shape=associativeEntity;whiteSpace=wrap;html=1;align=center;" vertex="1" parent="1">
          <mxGeometry x="400" y="970" width="100" height="40" as="geometry" />
        </mxCell>
        <mxCell id="oAigmpeFDJN5EbFYPB60-40" value="" style="edgeStyle=entityRelationEdgeStyle;fontSize=12;html=1;endArrow=ERzeroToMany;endFill=1;rounded=0;exitX=0;exitY=0.5;exitDx=0;exitDy=0;entryX=1;entryY=0.5;entryDx=0;entryDy=0;" edge="1" parent="1" source="oAigmpeFDJN5EbFYPB60-39" target="oAigmpeFDJN5EbFYPB60-9">
          <mxGeometry width="100" height="100" relative="1" as="geometry">
            <mxPoint x="330" y="360" as="sourcePoint" />
            <mxPoint x="270" y="420" as="targetPoint" />
            <Array as="points">
              <mxPoint x="320" y="390" />
              <mxPoint x="400" y="410" />
              <mxPoint x="360" y="400" />
              <mxPoint x="330" y="380" />
              <mxPoint x="620" y="420" />
              <mxPoint x="600" y="430" />
              <mxPoint x="400" y="370" />
              <mxPoint x="370" y="400" />
              <mxPoint x="330" y="390" />
            </Array>
          </mxGeometry>
        </mxCell>
        <mxCell id="oAigmpeFDJN5EbFYPB60-41" value="" style="edgeStyle=entityRelationEdgeStyle;fontSize=12;html=1;endArrow=ERzeroToMany;endFill=1;rounded=0;exitX=1;exitY=0.5;exitDx=0;exitDy=0;entryX=0;entryY=0.5;entryDx=0;entryDy=0;" edge="1" parent="1" source="oAigmpeFDJN5EbFYPB60-39" target="oAigmpeFDJN5EbFYPB60-38">
          <mxGeometry width="100" height="100" relative="1" as="geometry">
            <mxPoint x="750" y="860" as="sourcePoint" />
            <mxPoint x="1060" y="810" as="targetPoint" />
            <Array as="points">
              <mxPoint x="645" y="1060" />
              <mxPoint x="725" y="1080" />
              <mxPoint x="685" y="1070" />
              <mxPoint x="655" y="1050" />
              <mxPoint x="945" y="1090" />
              <mxPoint x="925" y="1100" />
              <mxPoint x="725" y="1040" />
              <mxPoint x="695" y="1070" />
              <mxPoint x="655" y="1060" />
            </Array>
          </mxGeometry>
        </mxCell>
        <mxCell id="oAigmpeFDJN5EbFYPB60-44" value="has" style="shape=rhombus;perimeter=rhombusPerimeter;whiteSpace=wrap;html=1;align=center;" vertex="1" parent="1">
          <mxGeometry x="330" y="820" width="100" height="40" as="geometry" />
        </mxCell>
        <mxCell id="oAigmpeFDJN5EbFYPB60-45" value="" style="edgeStyle=orthogonalEdgeStyle;fontSize=12;html=1;endArrow=ERzeroToMany;endFill=1;rounded=0;exitX=0;exitY=0.5;exitDx=0;exitDy=0;entryX=1;entryY=0.5;entryDx=0;entryDy=0;" edge="1" parent="1" source="oAigmpeFDJN5EbFYPB60-44" target="oAigmpeFDJN5EbFYPB60-8">
          <mxGeometry width="100" height="100" relative="1" as="geometry">
            <mxPoint x="350" y="465" as="sourcePoint" />
            <mxPoint x="260" y="455.0000000000001" as="targetPoint" />
            <Array as="points">
              <mxPoint x="300" y="840" />
              <mxPoint x="300" y="730" />
            </Array>
          </mxGeometry>
        </mxCell>
        <mxCell id="oAigmpeFDJN5EbFYPB60-46" value="Department" style="whiteSpace=wrap;html=1;align=center;" vertex="1" parent="1">
          <mxGeometry x="490" y="840" width="100" height="40" as="geometry" />
        </mxCell>
        <mxCell id="oAigmpeFDJN5EbFYPB60-47" value="" style="edgeStyle=entityRelationEdgeStyle;fontSize=12;html=1;endArrow=ERzeroToOne;endFill=1;rounded=0;entryX=0;entryY=0.25;entryDx=0;entryDy=0;exitX=1;exitY=0.5;exitDx=0;exitDy=0;" edge="1" parent="1" source="oAigmpeFDJN5EbFYPB60-44" target="oAigmpeFDJN5EbFYPB60-46">
          <mxGeometry width="100" height="100" relative="1" as="geometry">
            <mxPoint x="860" y="620" as="sourcePoint" />
            <mxPoint x="830" y="620" as="targetPoint" />
          </mxGeometry>
        </mxCell>
        <mxCell id="oAigmpeFDJN5EbFYPB60-48" value="" style="edgeStyle=entityRelationEdgeStyle;fontSize=12;html=1;endArrow=ERzeroToMany;endFill=1;rounded=0;entryX=1;entryY=0.25;entryDx=0;entryDy=0;exitX=0;exitY=0.5;exitDx=0;exitDy=0;" edge="1" parent="1" source="oAigmpeFDJN5EbFYPB60-49" target="oAigmpeFDJN5EbFYPB60-9">
          <mxGeometry width="100" height="100" relative="1" as="geometry">
            <mxPoint x="310" y="530" as="sourcePoint" />
            <mxPoint x="280" y="360" as="targetPoint" />
            <Array as="points">
              <mxPoint x="340" y="390" />
              <mxPoint x="420" y="410" />
              <mxPoint x="380" y="400" />
              <mxPoint x="350" y="380" />
              <mxPoint x="640" y="420" />
              <mxPoint x="620" y="430" />
              <mxPoint x="420" y="370" />
              <mxPoint x="390" y="400" />
              <mxPoint x="350" y="390" />
            </Array>
          </mxGeometry>
        </mxCell>
        <mxCell id="oAigmpeFDJN5EbFYPB60-49" value="has" style="shape=rhombus;perimeter=rhombusPerimeter;whiteSpace=wrap;html=1;align=center;" vertex="1" parent="1">
          <mxGeometry x="330" y="870" width="100" height="40" as="geometry" />
        </mxCell>
        <mxCell id="oAigmpeFDJN5EbFYPB60-51" value="" style="edgeStyle=entityRelationEdgeStyle;fontSize=12;html=1;endArrow=ERzeroToOne;endFill=1;rounded=0;exitX=1;exitY=0.5;exitDx=0;exitDy=0;entryX=0;entryY=0.75;entryDx=0;entryDy=0;" edge="1" parent="1" source="oAigmpeFDJN5EbFYPB60-49" target="oAigmpeFDJN5EbFYPB60-46">
          <mxGeometry width="100" height="100" relative="1" as="geometry">
            <mxPoint x="440" y="850" as="sourcePoint" />
            <mxPoint x="490" y="880" as="targetPoint" />
          </mxGeometry>
        </mxCell>
        <mxCell id="oAigmpeFDJN5EbFYPB60-52" value="has" style="shape=rhombus;perimeter=rhombusPerimeter;whiteSpace=wrap;html=1;align=center;" vertex="1" parent="1">
          <mxGeometry x="1130" y="280" width="100" height="40" as="geometry" />
        </mxCell>
        <mxCell id="oAigmpeFDJN5EbFYPB60-54" value="" style="edgeStyle=orthogonalEdgeStyle;fontSize=12;html=1;endArrow=ERzeroToOne;endFill=1;rounded=0;entryX=1;entryY=0.5;entryDx=0;entryDy=0;exitX=0;exitY=0.5;exitDx=0;exitDy=0;" edge="1" parent="1" source="oAigmpeFDJN5EbFYPB60-52" target="oAigmpeFDJN5EbFYPB60-12">
          <mxGeometry width="100" height="100" relative="1" as="geometry">
            <mxPoint x="970" y="420" as="sourcePoint" />
            <mxPoint x="1100" y="240" as="targetPoint" />
            <Array as="points">
              <mxPoint x="1120" y="300" />
              <mxPoint x="1120" y="410" />
            </Array>
          </mxGeometry>
        </mxCell>
        <mxCell id="oAigmpeFDJN5EbFYPB60-56" value="" style="edgeStyle=orthogonalEdgeStyle;fontSize=12;html=1;endArrow=ERzeroToMany;endFill=1;rounded=0;exitX=1;exitY=0.5;exitDx=0;exitDy=0;entryX=0;entryY=0.5;entryDx=0;entryDy=0;" edge="1" parent="1" source="oAigmpeFDJN5EbFYPB60-52" target="oAigmpeFDJN5EbFYPB60-13">
          <mxGeometry width="100" height="100" relative="1" as="geometry">
            <mxPoint x="680" y="370" as="sourcePoint" />
            <mxPoint x="990" y="320" as="targetPoint" />
          </mxGeometry>
        </mxCell>
        <mxCell id="oAigmpeFDJN5EbFYPB60-57" value="has" style="shape=rhombus;perimeter=rhombusPerimeter;whiteSpace=wrap;html=1;align=center;" vertex="1" parent="1">
          <mxGeometry x="1410" y="280" width="100" height="40" as="geometry" />
        </mxCell>
        <mxCell id="oAigmpeFDJN5EbFYPB60-58" value="" style="edgeStyle=entityRelationEdgeStyle;fontSize=12;html=1;endArrow=ERzeroToOne;endFill=1;rounded=0;entryX=1;entryY=0.5;entryDx=0;entryDy=0;exitX=0;exitY=0.5;exitDx=0;exitDy=0;" edge="1" parent="1" source="oAigmpeFDJN5EbFYPB60-57" target="oAigmpeFDJN5EbFYPB60-13">
          <mxGeometry width="100" height="100" relative="1" as="geometry">
            <mxPoint x="1300" y="420" as="sourcePoint" />
            <mxPoint x="1410" y="240" as="targetPoint" />
          </mxGeometry>
        </mxCell>
        <mxCell id="oAigmpeFDJN5EbFYPB60-59" value="" style="edgeStyle=entityRelationEdgeStyle;fontSize=12;html=1;endArrow=ERzeroToMany;endFill=1;rounded=0;exitX=1;exitY=0.5;exitDx=0;exitDy=0;entryX=0;entryY=0.5;entryDx=0;entryDy=0;" edge="1" parent="1" source="oAigmpeFDJN5EbFYPB60-57" target="oAigmpeFDJN5EbFYPB60-14">
          <mxGeometry width="100" height="100" relative="1" as="geometry">
            <mxPoint x="960" y="370" as="sourcePoint" />
            <mxPoint x="1560" y="240" as="targetPoint" />
            <Array as="points">
              <mxPoint x="855" y="570" />
              <mxPoint x="935" y="590" />
              <mxPoint x="895" y="580" />
              <mxPoint x="865" y="560" />
              <mxPoint x="1155" y="600" />
              <mxPoint x="1135" y="610" />
              <mxPoint x="935" y="550" />
              <mxPoint x="905" y="580" />
              <mxPoint x="865" y="570" />
            </Array>
          </mxGeometry>
        </mxCell>
        <mxCell id="oAigmpeFDJN5EbFYPB60-61" value="has" style="shape=rhombus;perimeter=rhombusPerimeter;whiteSpace=wrap;html=1;align=center;" vertex="1" parent="1">
          <mxGeometry x="1410" y="200" width="100" height="40" as="geometry" />
        </mxCell>
        <mxCell id="oAigmpeFDJN5EbFYPB60-62" value="" style="edgeStyle=entityRelationEdgeStyle;fontSize=12;html=1;endArrow=ERzeroToOne;endFill=1;rounded=0;entryX=1;entryY=0.25;entryDx=0;entryDy=0;exitX=0;exitY=0.5;exitDx=0;exitDy=0;" edge="1" parent="1" source="oAigmpeFDJN5EbFYPB60-61" target="oAigmpeFDJN5EbFYPB60-13">
          <mxGeometry width="100" height="100" relative="1" as="geometry">
            <mxPoint x="1310" y="350" as="sourcePoint" />
            <mxPoint x="1390" y="170" as="targetPoint" />
          </mxGeometry>
        </mxCell>
        <mxCell id="oAigmpeFDJN5EbFYPB60-63" value="" style="edgeStyle=entityRelationEdgeStyle;fontSize=12;html=1;endArrow=ERzeroToMany;endFill=1;rounded=0;exitX=1;exitY=0.5;exitDx=0;exitDy=0;entryX=0;entryY=0.5;entryDx=0;entryDy=0;" edge="1" parent="1" source="oAigmpeFDJN5EbFYPB60-61" target="oAigmpeFDJN5EbFYPB60-15">
          <mxGeometry width="100" height="100" relative="1" as="geometry">
            <mxPoint x="970" y="310" as="sourcePoint" />
            <mxPoint x="1590" y="180" as="targetPoint" />
            <Array as="points">
              <mxPoint x="865" y="510" />
              <mxPoint x="945" y="530" />
              <mxPoint x="905" y="520" />
              <mxPoint x="875" y="500" />
              <mxPoint x="1165" y="540" />
              <mxPoint x="1145" y="550" />
              <mxPoint x="945" y="490" />
              <mxPoint x="915" y="520" />
              <mxPoint x="875" y="510" />
            </Array>
          </mxGeometry>
        </mxCell>
        <mxCell id="oAigmpeFDJN5EbFYPB60-64" value="Quiz" style="whiteSpace=wrap;html=1;align=center;" vertex="1" parent="1">
          <mxGeometry x="1540" y="360" width="100" height="40" as="geometry" />
        </mxCell>
        <mxCell id="oAigmpeFDJN5EbFYPB60-65" value="has" style="shape=rhombus;perimeter=rhombusPerimeter;whiteSpace=wrap;html=1;align=center;" vertex="1" parent="1">
          <mxGeometry x="1410" y="360" width="100" height="40" as="geometry" />
        </mxCell>
        <mxCell id="oAigmpeFDJN5EbFYPB60-66" value="" style="edgeStyle=entityRelationEdgeStyle;fontSize=12;html=1;endArrow=ERzeroToOne;endFill=1;rounded=0;entryX=1;entryY=0.75;entryDx=0;entryDy=0;exitX=0;exitY=0.5;exitDx=0;exitDy=0;" edge="1" parent="1" source="oAigmpeFDJN5EbFYPB60-65" target="oAigmpeFDJN5EbFYPB60-13">
          <mxGeometry width="100" height="100" relative="1" as="geometry">
            <mxPoint x="1300" y="470" as="sourcePoint" />
            <mxPoint x="1330" y="290" as="targetPoint" />
            <Array as="points">
              <mxPoint x="1330" y="250" />
            </Array>
          </mxGeometry>
        </mxCell>
        <mxCell id="oAigmpeFDJN5EbFYPB60-67" value="" style="edgeStyle=entityRelationEdgeStyle;fontSize=12;html=1;endArrow=ERzeroToMany;endFill=1;rounded=0;exitX=1;exitY=0.5;exitDx=0;exitDy=0;entryX=0;entryY=0.5;entryDx=0;entryDy=0;" edge="1" parent="1" source="oAigmpeFDJN5EbFYPB60-65" target="oAigmpeFDJN5EbFYPB60-64">
          <mxGeometry width="100" height="100" relative="1" as="geometry">
            <mxPoint x="960" y="510" as="sourcePoint" />
            <mxPoint x="1560" y="380" as="targetPoint" />
            <Array as="points">
              <mxPoint x="855" y="710" />
              <mxPoint x="935" y="730" />
              <mxPoint x="895" y="720" />
              <mxPoint x="865" y="700" />
              <mxPoint x="1155" y="740" />
              <mxPoint x="1135" y="750" />
              <mxPoint x="935" y="690" />
              <mxPoint x="905" y="720" />
              <mxPoint x="865" y="710" />
            </Array>
          </mxGeometry>
        </mxCell>
        <mxCell id="oAigmpeFDJN5EbFYPB60-72" value="Quiz Question" style="whiteSpace=wrap;html=1;align=center;" vertex="1" parent="1">
          <mxGeometry x="1800" y="360" width="100" height="40" as="geometry" />
        </mxCell>
        <mxCell id="oAigmpeFDJN5EbFYPB60-73" value="has" style="shape=rhombus;perimeter=rhombusPerimeter;whiteSpace=wrap;html=1;align=center;" vertex="1" parent="1">
          <mxGeometry x="1670" y="360" width="100" height="40" as="geometry" />
        </mxCell>
        <mxCell id="oAigmpeFDJN5EbFYPB60-74" value="" style="edgeStyle=entityRelationEdgeStyle;fontSize=12;html=1;endArrow=ERzeroToOne;endFill=1;rounded=0;entryX=1;entryY=0.5;entryDx=0;entryDy=0;exitX=0;exitY=0.5;exitDx=0;exitDy=0;" edge="1" parent="1" source="oAigmpeFDJN5EbFYPB60-73" target="oAigmpeFDJN5EbFYPB60-64">
          <mxGeometry width="100" height="100" relative="1" as="geometry">
            <mxPoint x="1600" y="470" as="sourcePoint" />
            <mxPoint x="1630" y="250" as="targetPoint" />
            <Array as="points">
              <mxPoint x="1630" y="250" />
            </Array>
          </mxGeometry>
        </mxCell>
        <mxCell id="oAigmpeFDJN5EbFYPB60-75" value="" style="edgeStyle=orthogonalEdgeStyle;fontSize=12;html=1;endArrow=ERzeroToMany;endFill=1;rounded=0;exitX=1;exitY=0.5;exitDx=0;exitDy=0;entryX=0;entryY=0.5;entryDx=0;entryDy=0;" edge="1" parent="1" source="oAigmpeFDJN5EbFYPB60-73" target="oAigmpeFDJN5EbFYPB60-72">
          <mxGeometry width="100" height="100" relative="1" as="geometry">
            <mxPoint x="1260" y="420" as="sourcePoint" />
            <mxPoint x="1860" y="290" as="targetPoint" />
          </mxGeometry>
        </mxCell>
        <mxCell id="oAigmpeFDJN5EbFYPB60-76" value="Quiz Answer" style="whiteSpace=wrap;html=1;align=center;" vertex="1" parent="1">
          <mxGeometry x="1800" y="460" width="100" height="40" as="geometry" />
        </mxCell>
        <mxCell id="oAigmpeFDJN5EbFYPB60-77" value="has" style="shape=rhombus;perimeter=rhombusPerimeter;whiteSpace=wrap;html=1;align=center;" vertex="1" parent="1">
          <mxGeometry x="1670" y="410" width="100" height="40" as="geometry" />
        </mxCell>
        <mxCell id="oAigmpeFDJN5EbFYPB60-78" value="" style="edgeStyle=entityRelationEdgeStyle;fontSize=12;html=1;endArrow=ERzeroToOne;endFill=1;rounded=0;entryX=0;entryY=0.75;entryDx=0;entryDy=0;exitX=0.5;exitY=0;exitDx=0;exitDy=0;" edge="1" parent="1" source="oAigmpeFDJN5EbFYPB60-77" target="oAigmpeFDJN5EbFYPB60-72">
          <mxGeometry width="100" height="100" relative="1" as="geometry">
            <mxPoint x="1580" y="570" as="sourcePoint" />
            <mxPoint x="1620" y="390" as="targetPoint" />
            <Array as="points">
              <mxPoint x="1610" y="350" />
            </Array>
          </mxGeometry>
        </mxCell>
        <mxCell id="oAigmpeFDJN5EbFYPB60-79" value="" style="edgeStyle=entityRelationEdgeStyle;fontSize=12;html=1;endArrow=ERzeroToMany;endFill=1;rounded=0;exitX=0.5;exitY=1;exitDx=0;exitDy=0;entryX=0;entryY=0.25;entryDx=0;entryDy=0;" edge="1" parent="1" source="oAigmpeFDJN5EbFYPB60-77" target="oAigmpeFDJN5EbFYPB60-76">
          <mxGeometry width="100" height="100" relative="1" as="geometry">
            <mxPoint x="1240" y="520" as="sourcePoint" />
            <mxPoint x="1840" y="390" as="targetPoint" />
            <Array as="points">
              <mxPoint x="1135" y="720" />
              <mxPoint x="1215" y="740" />
              <mxPoint x="1175" y="730" />
              <mxPoint x="1145" y="710" />
              <mxPoint x="1435" y="750" />
              <mxPoint x="1415" y="760" />
              <mxPoint x="1215" y="700" />
              <mxPoint x="1185" y="730" />
              <mxPoint x="1145" y="720" />
            </Array>
          </mxGeometry>
        </mxCell>
        <mxCell id="oAigmpeFDJN5EbFYPB60-80" value="Subject" style="whiteSpace=wrap;html=1;align=center;" vertex="1" parent="1">
          <mxGeometry x="780" y="800" width="100" height="40" as="geometry" />
        </mxCell>
        <mxCell id="oAigmpeFDJN5EbFYPB60-81" value="has" style="shape=rhombus;perimeter=rhombusPerimeter;whiteSpace=wrap;html=1;align=center;" vertex="1" parent="1">
          <mxGeometry x="910" y="800" width="100" height="40" as="geometry" />
        </mxCell>
        <mxCell id="oAigmpeFDJN5EbFYPB60-84" value="" style="edgeStyle=orthogonalEdgeStyle;fontSize=12;html=1;endArrow=ERzeroToMany;endFill=1;rounded=0;entryX=0.5;entryY=1;entryDx=0;entryDy=0;exitX=0.5;exitY=0;exitDx=0;exitDy=0;" edge="1" parent="1" source="oAigmpeFDJN5EbFYPB60-81" target="oAigmpeFDJN5EbFYPB60-10">
          <mxGeometry width="100" height="100" relative="1" as="geometry">
            <mxPoint x="760" y="180" as="sourcePoint" />
            <mxPoint x="730" y="180" as="targetPoint" />
          </mxGeometry>
        </mxCell>
        <mxCell id="oAigmpeFDJN5EbFYPB60-85" value="" style="edgeStyle=entityRelationEdgeStyle;fontSize=12;html=1;endArrow=ERzeroToOne;endFill=1;rounded=0;entryX=1;entryY=0.5;entryDx=0;entryDy=0;exitX=0;exitY=0.5;exitDx=0;exitDy=0;" edge="1" parent="1" source="oAigmpeFDJN5EbFYPB60-81" target="oAigmpeFDJN5EbFYPB60-80">
          <mxGeometry width="100" height="100" relative="1" as="geometry">
            <mxPoint x="1150" y="890" as="sourcePoint" />
            <mxPoint x="1120" y="890" as="targetPoint" />
            <Array as="points">
              <mxPoint x="1120" y="890" />
            </Array>
          </mxGeometry>
        </mxCell>
        <mxCell id="oAigmpeFDJN5EbFYPB60-86" value="has" style="shape=rhombus;perimeter=rhombusPerimeter;whiteSpace=wrap;html=1;align=center;" vertex="1" parent="1">
          <mxGeometry x="650" y="800" width="100" height="40" as="geometry" />
        </mxCell>
        <mxCell id="oAigmpeFDJN5EbFYPB60-87" value="" style="edgeStyle=entityRelationEdgeStyle;fontSize=12;html=1;endArrow=ERzeroToOne;endFill=1;rounded=0;entryX=1;entryY=0.5;entryDx=0;entryDy=0;exitX=0;exitY=0.5;exitDx=0;exitDy=0;" edge="1" parent="1" source="oAigmpeFDJN5EbFYPB60-86" target="oAigmpeFDJN5EbFYPB60-46">
          <mxGeometry width="100" height="100" relative="1" as="geometry">
            <mxPoint x="940" y="565" as="sourcePoint" />
            <mxPoint x="630" y="495" as="targetPoint" />
            <Array as="points">
              <mxPoint x="910" y="565" />
            </Array>
          </mxGeometry>
        </mxCell>
        <mxCell id="oAigmpeFDJN5EbFYPB60-88" value="" style="edgeStyle=entityRelationEdgeStyle;fontSize=12;html=1;endArrow=ERzeroToMany;endFill=1;rounded=0;entryX=0;entryY=0.5;entryDx=0;entryDy=0;exitX=1;exitY=0.5;exitDx=0;exitDy=0;" edge="1" parent="1" source="oAigmpeFDJN5EbFYPB60-86" target="oAigmpeFDJN5EbFYPB60-80">
          <mxGeometry width="100" height="100" relative="1" as="geometry">
            <mxPoint x="789.9999999999998" y="769.38" as="sourcePoint" />
            <mxPoint x="740.0000000000002" y="769.38" as="targetPoint" />
            <Array as="points">
              <mxPoint x="500" y="549.38" />
              <mxPoint x="580" y="569.38" />
              <mxPoint x="630" y="579.38" />
              <mxPoint x="540" y="559.38" />
              <mxPoint x="510" y="539.38" />
              <mxPoint x="800" y="579.38" />
              <mxPoint x="780" y="589.38" />
              <mxPoint x="580" y="529.38" />
              <mxPoint x="550" y="559.38" />
              <mxPoint x="510" y="549.38" />
            </Array>
          </mxGeometry>
        </mxCell>
        <mxCell id="oAigmpeFDJN5EbFYPB60-96" value="answers" style="shape=associativeEntity;whiteSpace=wrap;html=1;align=center;" vertex="1" parent="1">
          <mxGeometry x="1000" y="650" width="100" height="40" as="geometry" />
        </mxCell>
        <mxCell id="oAigmpeFDJN5EbFYPB60-97" value="" style="edgeStyle=entityRelationEdgeStyle;fontSize=12;html=1;endArrow=ERzeroToMany;endFill=1;rounded=0;exitX=1;exitY=0.5;exitDx=0;exitDy=0;entryX=0;entryY=0.5;entryDx=0;entryDy=0;" edge="1" parent="1" source="oAigmpeFDJN5EbFYPB60-96" target="oAigmpeFDJN5EbFYPB60-76">
          <mxGeometry width="100" height="100" relative="1" as="geometry">
            <mxPoint x="1160.0000000000002" y="390" as="sourcePoint" />
            <mxPoint x="1650" y="380" as="targetPoint" />
            <Array as="points">
              <mxPoint x="893.5" y="560" />
              <mxPoint x="973.5" y="580" />
              <mxPoint x="933.5" y="570" />
              <mxPoint x="903.5" y="550" />
              <mxPoint x="1193.5" y="590" />
              <mxPoint x="1173.5" y="600" />
              <mxPoint x="973.5" y="540" />
              <mxPoint x="943.5" y="570" />
              <mxPoint x="903.5" y="560" />
            </Array>
          </mxGeometry>
        </mxCell>
        <mxCell id="oAigmpeFDJN5EbFYPB60-98" value="" style="edgeStyle=entityRelationEdgeStyle;fontSize=12;html=1;endArrow=ERzeroToMany;endFill=1;rounded=0;exitX=0;exitY=0.5;exitDx=0;exitDy=0;entryX=1;entryY=0.75;entryDx=0;entryDy=0;" edge="1" parent="1" source="oAigmpeFDJN5EbFYPB60-96" target="oAigmpeFDJN5EbFYPB60-7">
          <mxGeometry width="100" height="100" relative="1" as="geometry">
            <mxPoint x="1060" y="410" as="sourcePoint" />
            <mxPoint x="400" y="400" as="targetPoint" />
            <Array as="points">
              <mxPoint x="730" y="420" />
              <mxPoint x="810" y="440" />
              <mxPoint x="860" y="450" />
              <mxPoint x="770" y="430" />
              <mxPoint x="740" y="410" />
              <mxPoint x="1030" y="450" />
              <mxPoint x="1010" y="460" />
              <mxPoint x="810" y="400" />
              <mxPoint x="780" y="430" />
              <mxPoint x="740" y="420" />
            </Array>
          </mxGeometry>
        </mxCell>
        <mxCell id="oAigmpeFDJN5EbFYPB60-106" value="completes" style="shape=associativeEntity;whiteSpace=wrap;html=1;align=center;" vertex="1" parent="1">
          <mxGeometry x="990" y="60" width="100" height="40" as="geometry" />
        </mxCell>
        <mxCell id="oAigmpeFDJN5EbFYPB60-107" value="" style="edgeStyle=orthogonalEdgeStyle;fontSize=12;html=1;endArrow=ERzeroToMany;endFill=1;rounded=0;exitX=1;exitY=0.5;exitDx=0;exitDy=0;entryX=0;entryY=0.25;entryDx=0;entryDy=0;" edge="1" parent="1" source="oAigmpeFDJN5EbFYPB60-106" target="oAigmpeFDJN5EbFYPB60-15">
          <mxGeometry width="100" height="100" relative="1" as="geometry">
            <mxPoint x="810" y="120" as="sourcePoint" />
            <mxPoint x="730" y="140" as="targetPoint" />
            <Array as="points">
              <mxPoint x="1510" y="80" />
              <mxPoint x="1510" y="210" />
            </Array>
          </mxGeometry>
        </mxCell>
        <mxCell id="oAigmpeFDJN5EbFYPB60-108" value="" style="edgeStyle=orthogonalEdgeStyle;fontSize=12;html=1;endArrow=ERzeroToMany;endFill=1;rounded=0;exitX=0;exitY=0.5;exitDx=0;exitDy=0;entryX=1;entryY=0.25;entryDx=0;entryDy=0;" edge="1" parent="1" source="oAigmpeFDJN5EbFYPB60-106" target="oAigmpeFDJN5EbFYPB60-7">
          <mxGeometry width="100" height="100" relative="1" as="geometry">
            <mxPoint x="640" y="170" as="sourcePoint" />
            <mxPoint x="350" y="160" as="targetPoint" />
            <Array as="points">
              <mxPoint x="630" y="80" />
              <mxPoint x="630" y="260" />
              <mxPoint x="300" y="260" />
              <mxPoint x="300" y="390" />
            </Array>
          </mxGeometry>
        </mxCell>
        <mxCell id="oAigmpeFDJN5EbFYPB60-112" value="Parking lot" style="whiteSpace=wrap;html=1;align=center;" vertex="1" parent="1">
          <mxGeometry x="10" y="200" width="100" height="40" as="geometry" />
        </mxCell>
        <mxCell id="oAigmpeFDJN5EbFYPB60-113" value="has" style="shape=rhombus;perimeter=rhombusPerimeter;whiteSpace=wrap;html=1;align=center;" vertex="1" parent="1">
          <mxGeometry x="10" y="290" width="100" height="40" as="geometry" />
        </mxCell>
        <mxCell id="oAigmpeFDJN5EbFYPB60-114" value="" style="edgeStyle=orthogonalEdgeStyle;fontSize=12;html=1;endArrow=ERzeroToOne;endFill=1;rounded=0;entryX=0.5;entryY=1;entryDx=0;entryDy=0;exitX=0.5;exitY=0;exitDx=0;exitDy=0;" edge="1" parent="1" source="oAigmpeFDJN5EbFYPB60-113" target="oAigmpeFDJN5EbFYPB60-112">
          <mxGeometry width="100" height="100" relative="1" as="geometry">
            <mxPoint x="630" y="460" as="sourcePoint" />
            <mxPoint x="570" y="500" as="targetPoint" />
          </mxGeometry>
        </mxCell>
        <mxCell id="oAigmpeFDJN5EbFYPB60-115" value="" style="edgeStyle=orthogonalEdgeStyle;fontSize=12;html=1;endArrow=ERzeroToMany;endFill=1;rounded=0;exitX=0.5;exitY=1;exitDx=0;exitDy=0;entryX=-0.019;entryY=0.446;entryDx=0;entryDy=0;entryPerimeter=0;" edge="1" parent="1" source="oAigmpeFDJN5EbFYPB60-113" target="oAigmpeFDJN5EbFYPB60-109">
          <mxGeometry width="100" height="100" relative="1" as="geometry">
            <mxPoint x="440" y="420" as="sourcePoint" />
            <mxPoint x="500" y="430" as="targetPoint" />
            <Array as="points">
              <mxPoint x="60" y="630" />
              <mxPoint x="127" y="630" />
            </Array>
          </mxGeometry>
        </mxCell>
        <mxCell id="oAigmpeFDJN5EbFYPB60-116" value="Semester" style="whiteSpace=wrap;html=1;align=center;" vertex="1" parent="1">
          <mxGeometry x="700" y="170" width="100" height="40" as="geometry" />
        </mxCell>
        <mxCell id="oAigmpeFDJN5EbFYPB60-117" value="has" style="shape=rhombus;perimeter=rhombusPerimeter;whiteSpace=wrap;html=1;align=center;" vertex="1" parent="1">
          <mxGeometry x="830" y="170" width="100" height="40" as="geometry" />
        </mxCell>
        <mxCell id="oAigmpeFDJN5EbFYPB60-119" value="" style="edgeStyle=entityRelationEdgeStyle;fontSize=12;html=1;endArrow=ERzeroToOne;endFill=1;rounded=0;entryX=1;entryY=0.5;entryDx=0;entryDy=0;exitX=0;exitY=0.5;exitDx=0;exitDy=0;" edge="1" parent="1" source="oAigmpeFDJN5EbFYPB60-117" target="oAigmpeFDJN5EbFYPB60-116">
          <mxGeometry width="100" height="100" relative="1" as="geometry">
            <mxPoint x="660" y="350" as="sourcePoint" />
            <mxPoint x="760" y="250" as="targetPoint" />
          </mxGeometry>
        </mxCell>
        <mxCell id="oAigmpeFDJN5EbFYPB60-122" value="" style="edgeStyle=entityRelationEdgeStyle;fontSize=12;html=1;endArrow=ERzeroToMany;endFill=1;rounded=0;exitX=1;exitY=0.5;exitDx=0;exitDy=0;entryX=0;entryY=0.25;entryDx=0;entryDy=0;" edge="1" parent="1" source="oAigmpeFDJN5EbFYPB60-117" target="oAigmpeFDJN5EbFYPB60-12">
          <mxGeometry width="100" height="100" relative="1" as="geometry">
            <mxPoint x="440" y="420" as="sourcePoint" />
            <mxPoint x="730" y="390" as="targetPoint" />
            <Array as="points">
              <mxPoint x="585" y="580" />
              <mxPoint x="665" y="600" />
              <mxPoint x="625" y="590" />
              <mxPoint x="480" y="460" />
              <mxPoint x="720" y="380" />
              <mxPoint x="595" y="570" />
              <mxPoint x="885" y="610" />
              <mxPoint x="865" y="620" />
              <mxPoint x="665" y="560" />
              <mxPoint x="635" y="590" />
              <mxPoint x="595" y="580" />
            </Array>
          </mxGeometry>
        </mxCell>
        <mxCell id="oAigmpeFDJN5EbFYPB60-123" value="is paid" style="shape=rhombus;perimeter=rhombusPerimeter;whiteSpace=wrap;html=1;align=center;" vertex="1" parent="1">
          <mxGeometry x="10" y="750" width="100" height="40" as="geometry" />
        </mxCell>
        <mxCell id="oAigmpeFDJN5EbFYPB60-127" value="" style="edgeStyle=orthogonalEdgeStyle;fontSize=12;html=1;endArrow=ERmandOne;rounded=0;entryX=0.25;entryY=1;entryDx=0;entryDy=0;exitX=1;exitY=0.5;exitDx=0;exitDy=0;" edge="1" parent="1" source="oAigmpeFDJN5EbFYPB60-123" target="oAigmpeFDJN5EbFYPB60-8">
          <mxGeometry width="100" height="100" relative="1" as="geometry">
            <mxPoint x="80" y="560" as="sourcePoint" />
            <mxPoint x="180" y="460" as="targetPoint" />
          </mxGeometry>
        </mxCell>
        <mxCell id="oAigmpeFDJN5EbFYPB60-129" value="" style="edgeStyle=orthogonalEdgeStyle;fontSize=12;html=1;endArrow=ERzeroToMany;endFill=1;rounded=0;entryX=0.5;entryY=0;entryDx=0;entryDy=0;exitX=0.5;exitY=1;exitDx=0;exitDy=0;" edge="1" parent="1" source="oAigmpeFDJN5EbFYPB60-123" target="oAigmpeFDJN5EbFYPB60-134">
          <mxGeometry width="100" height="100" relative="1" as="geometry">
            <mxPoint x="60" y="840" as="sourcePoint" />
            <mxPoint x="50" y="740" as="targetPoint" />
            <Array as="points" />
          </mxGeometry>
        </mxCell>
        <mxCell id="oAigmpeFDJN5EbFYPB60-130" value="is paid" style="shape=rhombus;perimeter=rhombusPerimeter;whiteSpace=wrap;html=1;align=center;" vertex="1" parent="1">
          <mxGeometry x="130" y="1020" width="100" height="40" as="geometry" />
        </mxCell>
        <mxCell id="oAigmpeFDJN5EbFYPB60-132" value="" style="edgeStyle=orthogonalEdgeStyle;fontSize=12;html=1;endArrow=ERzeroToMany;endFill=1;rounded=0;exitX=0.5;exitY=1;exitDx=0;exitDy=0;entryX=0.5;entryY=0;entryDx=0;entryDy=0;" edge="1" parent="1" source="oAigmpeFDJN5EbFYPB60-130" target="oAigmpeFDJN5EbFYPB60-136">
          <mxGeometry width="100" height="100" relative="1" as="geometry">
            <mxPoint x="200" y="570" as="sourcePoint" />
            <mxPoint x="190" y="699.9999999999998" as="targetPoint" />
            <Array as="points">
              <mxPoint x="180" y="1070" />
              <mxPoint x="160" y="1070" />
            </Array>
          </mxGeometry>
        </mxCell>
        <mxCell id="oAigmpeFDJN5EbFYPB60-133" value="" style="edgeStyle=orthogonalEdgeStyle;fontSize=12;html=1;endArrow=ERmandOne;rounded=0;entryX=0.5;entryY=1;entryDx=0;entryDy=0;exitX=0.5;exitY=0;exitDx=0;exitDy=0;" edge="1" parent="1" source="oAigmpeFDJN5EbFYPB60-130" target="oAigmpeFDJN5EbFYPB60-9">
          <mxGeometry width="100" height="100" relative="1" as="geometry">
            <mxPoint x="190" y="600" as="sourcePoint" />
            <mxPoint x="215" y="439.5" as="targetPoint" />
          </mxGeometry>
        </mxCell>
        <mxCell id="oAigmpeFDJN5EbFYPB60-134" value="Teacher Payment" style="shape=ext;margin=3;double=1;whiteSpace=wrap;html=1;align=center;" vertex="1" parent="1">
          <mxGeometry x="10" y="890" width="100" height="40" as="geometry" />
        </mxCell>
        <mxCell id="oAigmpeFDJN5EbFYPB60-136" value="Staff Payment" style="shape=ext;margin=3;double=1;whiteSpace=wrap;html=1;align=center;" vertex="1" parent="1">
          <mxGeometry x="110" y="1120" width="100" height="40" as="geometry" />
        </mxCell>
        <mxCell id="oAigmpeFDJN5EbFYPB60-137" value="makes" style="shape=rhombus;perimeter=rhombusPerimeter;whiteSpace=wrap;html=1;align=center;" vertex="1" parent="1">
          <mxGeometry x="140" y="240" width="100" height="40" as="geometry" />
        </mxCell>
        <mxCell id="oAigmpeFDJN5EbFYPB60-138" value="" style="edgeStyle=orthogonalEdgeStyle;fontSize=12;html=1;endArrow=ERzeroToMany;endFill=1;rounded=0;entryX=0.5;entryY=1;entryDx=0;entryDy=0;exitX=0.5;exitY=0;exitDx=0;exitDy=0;" edge="1" parent="1" source="oAigmpeFDJN5EbFYPB60-137" target="oAigmpeFDJN5EbFYPB60-140">
          <mxGeometry width="100" height="100" relative="1" as="geometry">
            <mxPoint x="310" as="sourcePoint" />
            <mxPoint x="310" y="50" as="targetPoint" />
          </mxGeometry>
        </mxCell>
        <mxCell id="oAigmpeFDJN5EbFYPB60-139" value="" style="edgeStyle=orthogonalEdgeStyle;fontSize=12;html=1;endArrow=ERmandOne;rounded=0;entryX=0.5;entryY=0;entryDx=0;entryDy=0;exitX=0.5;exitY=1;exitDx=0;exitDy=0;" edge="1" parent="1" source="oAigmpeFDJN5EbFYPB60-137" target="oAigmpeFDJN5EbFYPB60-7">
          <mxGeometry width="100" height="100" relative="1" as="geometry">
            <mxPoint x="390" y="165" as="sourcePoint" />
            <mxPoint x="310" y="135" as="targetPoint" />
            <Array as="points">
              <mxPoint x="190" y="340" />
              <mxPoint x="190" y="340" />
            </Array>
          </mxGeometry>
        </mxCell>
        <mxCell id="oAigmpeFDJN5EbFYPB60-140" value="Student Payment" style="shape=ext;margin=3;double=1;whiteSpace=wrap;html=1;align=center;" vertex="1" parent="1">
          <mxGeometry x="140" y="170" width="100" height="40" as="geometry" />
        </mxCell>
        <mxCell id="oAigmpeFDJN5EbFYPB60-141" value="has" style="shape=rhombus;perimeter=rhombusPerimeter;whiteSpace=wrap;html=1;align=center;" vertex="1" parent="1">
          <mxGeometry x="380" y="170" width="100" height="40" as="geometry" />
        </mxCell>
        <mxCell id="oAigmpeFDJN5EbFYPB60-142" value="" style="edgeStyle=orthogonalEdgeStyle;fontSize=12;html=1;endArrow=ERzeroToMany;endFill=1;rounded=0;entryX=1;entryY=0.5;entryDx=0;entryDy=0;exitX=0;exitY=0.5;exitDx=0;exitDy=0;" edge="1" parent="1" source="oAigmpeFDJN5EbFYPB60-141" target="oAigmpeFDJN5EbFYPB60-140">
          <mxGeometry width="100" height="100" relative="1" as="geometry">
            <mxPoint x="230" y="100" as="sourcePoint" />
            <mxPoint x="230" y="70" as="targetPoint" />
            <Array as="points">
              <mxPoint x="330" y="190" />
              <mxPoint x="330" y="190" />
            </Array>
          </mxGeometry>
        </mxCell>
        <mxCell id="oAigmpeFDJN5EbFYPB60-143" value="" style="edgeStyle=orthogonalEdgeStyle;fontSize=12;html=1;endArrow=ERmandOne;rounded=0;entryX=0;entryY=0.5;entryDx=0;entryDy=0;exitX=1;exitY=0.5;exitDx=0;exitDy=0;" edge="1" parent="1" source="oAigmpeFDJN5EbFYPB60-141" target="oAigmpeFDJN5EbFYPB60-116">
          <mxGeometry width="100" height="100" relative="1" as="geometry">
            <mxPoint x="230" y="140" as="sourcePoint" />
            <mxPoint x="230" y="210" as="targetPoint" />
            <Array as="points">
              <mxPoint x="650" y="190" />
              <mxPoint x="650" y="190" />
            </Array>
          </mxGeometry>
        </mxCell>
        <mxCell id="oAigmpeFDJN5EbFYPB60-144" value="Classroom" style="whiteSpace=wrap;html=1;align=center;" vertex="1" parent="1">
          <mxGeometry x="1440" y="625" width="100" height="40" as="geometry" />
        </mxCell>
        <mxCell id="oAigmpeFDJN5EbFYPB60-145" value="has" style="shape=rhombus;perimeter=rhombusPerimeter;whiteSpace=wrap;html=1;align=center;" vertex="1" parent="1">
          <mxGeometry x="1140" y="400" width="100" height="40" as="geometry" />
        </mxCell>
        <mxCell id="oAigmpeFDJN5EbFYPB60-146" value="" style="edgeStyle=orthogonalEdgeStyle;fontSize=12;html=1;endArrow=ERzeroToOne;endFill=1;rounded=0;entryX=0;entryY=0.5;entryDx=0;entryDy=0;exitX=1;exitY=0.5;exitDx=0;exitDy=0;" edge="1" parent="1" source="oAigmpeFDJN5EbFYPB60-145" target="oAigmpeFDJN5EbFYPB60-144">
          <mxGeometry width="100" height="100" relative="1" as="geometry">
            <mxPoint x="1410" y="645" as="sourcePoint" />
            <mxPoint x="1540" y="750" as="targetPoint" />
          </mxGeometry>
        </mxCell>
        <mxCell id="oAigmpeFDJN5EbFYPB60-147" value="" style="edgeStyle=orthogonalEdgeStyle;fontSize=12;html=1;endArrow=ERzeroToMany;endFill=1;rounded=0;entryX=1;entryY=0.75;entryDx=0;entryDy=0;exitX=0;exitY=0.5;exitDx=0;exitDy=0;" edge="1" parent="1" source="oAigmpeFDJN5EbFYPB60-145" target="oAigmpeFDJN5EbFYPB60-12">
          <mxGeometry width="100" height="100" relative="1" as="geometry">
            <mxPoint x="1320" y="595" as="sourcePoint" />
            <mxPoint x="1170" y="600" as="targetPoint" />
          </mxGeometry>
        </mxCell>
        <mxCell id="oAigmpeFDJN5EbFYPB60-153" value="Required Resource" style="whiteSpace=wrap;html=1;align=center;" vertex="1" parent="1">
          <mxGeometry x="1360" y="140" width="100" height="40" as="geometry" />
        </mxCell>
        <mxCell id="oAigmpeFDJN5EbFYPB60-154" value="has" style="shape=rhombus;perimeter=rhombusPerimeter;whiteSpace=wrap;html=1;align=center;" vertex="1" parent="1">
          <mxGeometry x="1150" y="190" width="100" height="40" as="geometry" />
        </mxCell>
        <mxCell id="oAigmpeFDJN5EbFYPB60-155" value="" style="edgeStyle=orthogonalEdgeStyle;fontSize=12;html=1;endArrow=ERzeroToOne;endFill=1;rounded=0;entryX=1;entryY=0.25;entryDx=0;entryDy=0;exitX=0;exitY=0.5;exitDx=0;exitDy=0;" edge="1" parent="1" source="oAigmpeFDJN5EbFYPB60-154" target="oAigmpeFDJN5EbFYPB60-12">
          <mxGeometry width="100" height="100" relative="1" as="geometry">
            <mxPoint x="1360" y="165" as="sourcePoint" />
            <mxPoint x="1380" y="355" as="targetPoint" />
            <Array as="points">
              <mxPoint x="1110" y="210" />
              <mxPoint x="1110" y="400" />
            </Array>
          </mxGeometry>
        </mxCell>
        <mxCell id="oAigmpeFDJN5EbFYPB60-156" value="" style="edgeStyle=orthogonalEdgeStyle;fontSize=12;html=1;endArrow=ERzeroToMany;endFill=1;rounded=0;exitX=1;exitY=0.5;exitDx=0;exitDy=0;entryX=0;entryY=0.5;entryDx=0;entryDy=0;" edge="1" parent="1" source="oAigmpeFDJN5EbFYPB60-154" target="oAigmpeFDJN5EbFYPB60-153">
          <mxGeometry width="100" height="100" relative="1" as="geometry">
            <mxPoint x="1300" y="210" as="sourcePoint" />
            <mxPoint x="1200" y="130" as="targetPoint" />
            <Array as="points">
              <mxPoint x="1300" y="210" />
              <mxPoint x="1300" y="160" />
            </Array>
          </mxGeometry>
        </mxCell>
        <mxCell id="oAigmpeFDJN5EbFYPB60-157" value="has" style="shape=associativeEntity;whiteSpace=wrap;html=1;align=center;" vertex="1" parent="1">
          <mxGeometry x="1570" y="625" width="100" height="40" as="geometry" />
        </mxCell>
        <mxCell id="oAigmpeFDJN5EbFYPB60-158" value="Classroom Resource" style="whiteSpace=wrap;html=1;align=center;" vertex="1" parent="1">
          <mxGeometry x="1700" y="625" width="100" height="40" as="geometry" />
        </mxCell>
        <mxCell id="oAigmpeFDJN5EbFYPB60-159" value="" style="edgeStyle=orthogonalEdgeStyle;fontSize=12;html=1;endArrow=ERzeroToMany;endFill=1;rounded=0;exitX=1;exitY=0.5;exitDx=0;exitDy=0;entryX=0;entryY=0.5;entryDx=0;entryDy=0;" edge="1" parent="1" source="oAigmpeFDJN5EbFYPB60-157" target="oAigmpeFDJN5EbFYPB60-158">
          <mxGeometry width="100" height="100" relative="1" as="geometry">
            <mxPoint x="1240" y="785" as="sourcePoint" />
            <mxPoint x="1560" y="735" as="targetPoint" />
          </mxGeometry>
        </mxCell>
        <mxCell id="oAigmpeFDJN5EbFYPB60-160" value="" style="edgeStyle=orthogonalEdgeStyle;fontSize=12;html=1;endArrow=ERzeroToMany;endFill=1;rounded=0;exitX=0;exitY=0.5;exitDx=0;exitDy=0;entryX=1;entryY=0.5;entryDx=0;entryDy=0;" edge="1" parent="1" source="oAigmpeFDJN5EbFYPB60-157" target="oAigmpeFDJN5EbFYPB60-144">
          <mxGeometry width="100" height="100" relative="1" as="geometry">
            <mxPoint x="1520" y="775" as="sourcePoint" />
            <mxPoint x="1220" y="745" as="targetPoint" />
          </mxGeometry>
        </mxCell>
        <mxCell id="oAigmpeFDJN5EbFYPB60-161" value="" style="edgeStyle=orthogonalEdgeStyle;fontSize=12;html=1;endArrow=ERzeroToMany;endFill=1;rounded=0;entryX=0.75;entryY=1;entryDx=0;entryDy=0;exitX=0;exitY=0.5;exitDx=0;exitDy=0;" edge="1" parent="1" source="oAigmpeFDJN5EbFYPB60-162" target="oAigmpeFDJN5EbFYPB60-7">
          <mxGeometry width="100" height="100" relative="1" as="geometry">
            <mxPoint x="420" y="640" as="sourcePoint" />
            <mxPoint x="350" y="660" as="targetPoint" />
            <Array as="points">
              <mxPoint x="310" y="1090" />
              <mxPoint x="310" y="470" />
              <mxPoint x="215" y="470" />
            </Array>
          </mxGeometry>
        </mxCell>
        <mxCell id="oAigmpeFDJN5EbFYPB60-162" value="has" style="shape=associativeEntity;whiteSpace=wrap;html=1;align=center;" vertex="1" parent="1">
          <mxGeometry x="340" y="1070" width="100" height="40" as="geometry" />
        </mxCell>
        <mxCell id="oAigmpeFDJN5EbFYPB60-164" value="Organization" style="whiteSpace=wrap;html=1;align=center;" vertex="1" parent="1">
          <mxGeometry x="500" y="1110" width="100" height="40" as="geometry" />
        </mxCell>
        <mxCell id="oAigmpeFDJN5EbFYPB60-165" value="" style="edgeStyle=entityRelationEdgeStyle;fontSize=12;html=1;endArrow=ERzeroToMany;endFill=1;rounded=0;exitX=1;exitY=0.5;exitDx=0;exitDy=0;entryX=0;entryY=0.25;entryDx=0;entryDy=0;" edge="1" parent="1" source="oAigmpeFDJN5EbFYPB60-162" target="oAigmpeFDJN5EbFYPB60-164">
          <mxGeometry width="100" height="100" relative="1" as="geometry">
            <mxPoint x="450" y="1010" as="sourcePoint" />
            <mxPoint x="510" y="1030" as="targetPoint" />
            <Array as="points">
              <mxPoint x="595" y="1080" />
              <mxPoint x="675" y="1100" />
              <mxPoint x="635" y="1090" />
              <mxPoint x="470" y="1080" />
              <mxPoint x="605" y="1070" />
              <mxPoint x="895" y="1110" />
              <mxPoint x="875" y="1120" />
              <mxPoint x="675" y="1060" />
              <mxPoint x="645" y="1090" />
              <mxPoint x="605" y="1080" />
            </Array>
          </mxGeometry>
        </mxCell>
        <mxCell id="oAigmpeFDJN5EbFYPB60-166" value="has" style="shape=associativeEntity;whiteSpace=wrap;html=1;align=center;" vertex="1" parent="1">
          <mxGeometry x="340" y="1150" width="100" height="40" as="geometry" />
        </mxCell>
        <mxCell id="oAigmpeFDJN5EbFYPB60-168" value="" style="edgeStyle=entityRelationEdgeStyle;fontSize=12;html=1;endArrow=ERzeroToMany;endFill=1;rounded=0;exitX=1;exitY=0.5;exitDx=0;exitDy=0;" edge="1" parent="1" source="oAigmpeFDJN5EbFYPB60-166">
          <mxGeometry width="100" height="100" relative="1" as="geometry">
            <mxPoint x="450" y="1110" as="sourcePoint" />
            <mxPoint x="500" y="1140" as="targetPoint" />
            <Array as="points">
              <mxPoint x="605" y="1090" />
              <mxPoint x="685" y="1110" />
              <mxPoint x="645" y="1100" />
              <mxPoint x="480" y="1090" />
              <mxPoint x="615" y="1080" />
              <mxPoint x="905" y="1120" />
              <mxPoint x="885" y="1130" />
              <mxPoint x="685" y="1070" />
              <mxPoint x="655" y="1100" />
              <mxPoint x="615" y="1090" />
            </Array>
          </mxGeometry>
        </mxCell>
        <mxCell id="oAigmpeFDJN5EbFYPB60-169" value="" style="edgeStyle=orthogonalEdgeStyle;fontSize=12;html=1;endArrow=ERzeroToMany;endFill=1;rounded=0;entryX=0.75;entryY=1;entryDx=0;entryDy=0;exitX=0;exitY=0.5;exitDx=0;exitDy=0;" edge="1" parent="1" source="oAigmpeFDJN5EbFYPB60-166" target="oAigmpeFDJN5EbFYPB60-8">
          <mxGeometry width="100" height="100" relative="1" as="geometry">
            <mxPoint x="330" y="730" as="sourcePoint" />
            <mxPoint x="225" y="290" as="targetPoint" />
            <Array as="points">
              <mxPoint x="290" y="1170" />
              <mxPoint x="290" y="850" />
              <mxPoint x="215" y="850" />
            </Array>
          </mxGeometry>
        </mxCell>
        <mxCell id="oAigmpeFDJN5EbFYPB60-170" value="organization_id" style="ellipse;whiteSpace=wrap;html=1;align=center;fontStyle=4;" vertex="1" parent="1">
          <mxGeometry x="560" y="1060" width="100" height="40" as="geometry" />
        </mxCell>
        <mxCell id="oAigmpeFDJN5EbFYPB60-171" value="" style="fontSize=12;html=1;endArrow=none;rounded=0;endFill=0;startSize=0;endSize=0;exitX=1;exitY=0;exitDx=0;exitDy=0;entryX=0.5;entryY=1;entryDx=0;entryDy=0;" edge="1" parent="1" source="oAigmpeFDJN5EbFYPB60-164" target="oAigmpeFDJN5EbFYPB60-170">
          <mxGeometry width="100" height="100" relative="1" as="geometry">
            <mxPoint x="830" y="1040" as="sourcePoint" />
            <mxPoint x="930" y="940" as="targetPoint" />
          </mxGeometry>
        </mxCell>
        <mxCell id="oAigmpeFDJN5EbFYPB60-172" value="staff_payment_id" style="ellipse;whiteSpace=wrap;html=1;align=center;fontStyle=4;" vertex="1" parent="1">
          <mxGeometry x="10" y="1070" width="100" height="40" as="geometry" />
        </mxCell>
        <mxCell id="oAigmpeFDJN5EbFYPB60-173" value="" style="fontSize=12;html=1;endArrow=none;rounded=0;endFill=0;startSize=0;endSize=0;exitX=1;exitY=0;exitDx=0;exitDy=0;entryX=0.5;entryY=1;entryDx=0;entryDy=0;" edge="1" parent="1" target="oAigmpeFDJN5EbFYPB60-172">
          <mxGeometry width="100" height="100" relative="1" as="geometry">
            <mxPoint x="110" y="1120" as="sourcePoint" />
            <mxPoint x="440" y="950" as="targetPoint" />
          </mxGeometry>
        </mxCell>
        <mxCell id="oAigmpeFDJN5EbFYPB60-175" value="" style="fontSize=12;html=1;endArrow=none;rounded=0;endFill=0;startSize=0;endSize=0;exitX=1;exitY=0;exitDx=0;exitDy=0;entryX=0.5;entryY=1;entryDx=0;entryDy=0;" edge="1" parent="1">
          <mxGeometry width="100" height="100" relative="1" as="geometry">
            <mxPoint x="210" y="1120" as="sourcePoint" />
            <mxPoint x="220" y="1110" as="targetPoint" />
          </mxGeometry>
        </mxCell>
        <mxCell id="oAigmpeFDJN5EbFYPB60-177" value="staff_id" style="ellipse;whiteSpace=wrap;html=1;align=center;fontStyle=4;" vertex="1" parent="1">
          <mxGeometry x="140" y="830" width="60" height="20" as="geometry" />
        </mxCell>
        <mxCell id="oAigmpeFDJN5EbFYPB60-178" value="" style="fontSize=12;html=1;endArrow=none;rounded=0;endFill=0;startSize=0;endSize=0;exitX=1;exitY=0;exitDx=0;exitDy=0;entryX=0.5;entryY=1;entryDx=0;entryDy=0;" edge="1" parent="1" target="oAigmpeFDJN5EbFYPB60-177">
          <mxGeometry width="100" height="100" relative="1" as="geometry">
            <mxPoint x="140" y="920" as="sourcePoint" />
            <mxPoint x="470" y="750" as="targetPoint" />
          </mxGeometry>
        </mxCell>
        <mxCell id="oAigmpeFDJN5EbFYPB60-180" value="" style="fontSize=12;html=1;endArrow=none;rounded=0;endFill=0;startSize=0;endSize=0;exitX=1;exitY=0;exitDx=0;exitDy=0;entryX=0.5;entryY=1;entryDx=0;entryDy=0;" edge="1" parent="1">
          <mxGeometry width="100" height="100" relative="1" as="geometry">
            <mxPoint x="190" y="920" as="sourcePoint" />
            <mxPoint x="180" y="910" as="targetPoint" />
          </mxGeometry>
        </mxCell>
        <mxCell id="oAigmpeFDJN5EbFYPB60-183" value="" style="fontSize=12;html=1;endArrow=none;rounded=0;endFill=0;startSize=0;endSize=0;exitX=1;exitY=0;exitDx=0;exitDy=0;entryX=0.5;entryY=1;entryDx=0;entryDy=0;" edge="1" parent="1" source="oAigmpeFDJN5EbFYPB60-9">
          <mxGeometry width="100" height="100" relative="1" as="geometry">
            <mxPoint x="200" y="930" as="sourcePoint" />
            <mxPoint x="200" y="880" as="targetPoint" />
          </mxGeometry>
        </mxCell>
        <mxCell id="oAigmpeFDJN5EbFYPB60-186" value="" style="fontSize=12;html=1;endArrow=none;rounded=0;endFill=0;startSize=0;endSize=0;exitX=0;exitY=0;exitDx=0;exitDy=0;entryX=0.5;entryY=1;entryDx=0;entryDy=0;" edge="1" parent="1" target="oAigmpeFDJN5EbFYPB60-185" source="oAigmpeFDJN5EbFYPB60-134">
          <mxGeometry width="100" height="100" relative="1" as="geometry">
            <mxPoint x="70" y="860" as="sourcePoint" />
            <mxPoint x="400" y="690" as="targetPoint" />
          </mxGeometry>
        </mxCell>
        <mxCell id="oAigmpeFDJN5EbFYPB60-188" value="" style="fontSize=12;html=1;endArrow=none;rounded=0;endFill=0;startSize=0;endSize=0;entryX=0.5;entryY=1;entryDx=0;entryDy=0;" edge="1" parent="1" source="oAigmpeFDJN5EbFYPB60-420">
          <mxGeometry width="100" height="100" relative="1" as="geometry">
            <mxPoint x="110" y="890" as="sourcePoint" />
            <mxPoint x="69.99999999999989" y="870" as="targetPoint" />
          </mxGeometry>
        </mxCell>
        <mxCell id="oAigmpeFDJN5EbFYPB60-190" value="teacher_id" style="ellipse;whiteSpace=wrap;html=1;align=center;fontStyle=4;" vertex="1" parent="1">
          <mxGeometry x="80" y="680" width="60" height="20" as="geometry" />
        </mxCell>
        <mxCell id="oAigmpeFDJN5EbFYPB60-191" value="" style="fontSize=12;html=1;endArrow=none;rounded=0;endFill=0;startSize=0;endSize=0;exitX=0;exitY=0;exitDx=0;exitDy=0;entryX=0.5;entryY=1;entryDx=0;entryDy=0;" edge="1" parent="1" target="oAigmpeFDJN5EbFYPB60-190" source="oAigmpeFDJN5EbFYPB60-8">
          <mxGeometry width="100" height="100" relative="1" as="geometry">
            <mxPoint x="140" y="690" as="sourcePoint" />
            <mxPoint x="470" y="520" as="targetPoint" />
          </mxGeometry>
        </mxCell>
        <mxCell id="oAigmpeFDJN5EbFYPB60-193" value="" style="fontSize=12;html=1;endArrow=none;rounded=0;endFill=0;startSize=0;endSize=0;exitX=0.5;exitY=0;exitDx=0;exitDy=0;entryX=0.5;entryY=1;entryDx=0;entryDy=0;" edge="1" parent="1" source="oAigmpeFDJN5EbFYPB60-8">
          <mxGeometry width="100" height="100" relative="1" as="geometry">
            <mxPoint x="200" y="980" as="sourcePoint" />
            <mxPoint x="170" y="680" as="targetPoint" />
          </mxGeometry>
        </mxCell>
        <mxCell id="oAigmpeFDJN5EbFYPB60-199" value="" style="fontSize=12;html=1;endArrow=none;rounded=0;endFill=0;startSize=0;endSize=0;exitX=1;exitY=0;exitDx=0;exitDy=0;entryX=0.5;entryY=1;entryDx=0;entryDy=0;" edge="1" parent="1">
          <mxGeometry width="100" height="100" relative="1" as="geometry">
            <mxPoint x="240" y="710" as="sourcePoint" />
            <mxPoint x="210" y="700" as="targetPoint" />
          </mxGeometry>
        </mxCell>
        <mxCell id="oAigmpeFDJN5EbFYPB60-200" value="parking_id" style="ellipse;whiteSpace=wrap;html=1;align=center;fontStyle=4;" vertex="1" parent="1">
          <mxGeometry x="10" y="160" width="80" height="20" as="geometry" />
        </mxCell>
        <mxCell id="oAigmpeFDJN5EbFYPB60-201" value="" style="fontSize=12;html=1;endArrow=none;rounded=0;endFill=0;startSize=0;endSize=0;exitX=0.5;exitY=0;exitDx=0;exitDy=0;entryX=0.5;entryY=1;entryDx=0;entryDy=0;" edge="1" parent="1" target="oAigmpeFDJN5EbFYPB60-200" source="oAigmpeFDJN5EbFYPB60-112">
          <mxGeometry width="100" height="100" relative="1" as="geometry">
            <mxPoint x="70" y="200" as="sourcePoint" />
            <mxPoint x="70" y="460" as="targetPoint" />
          </mxGeometry>
        </mxCell>
        <mxCell id="oAigmpeFDJN5EbFYPB60-202" value="staff_role&lt;br&gt;_id" style="ellipse;whiteSpace=wrap;html=1;align=center;fontStyle=4;" vertex="1" parent="1">
          <mxGeometry x="530" y="940" width="60" height="40" as="geometry" />
        </mxCell>
        <mxCell id="oAigmpeFDJN5EbFYPB60-203" value="" style="fontSize=12;html=1;endArrow=none;rounded=0;endFill=0;startSize=0;endSize=0;exitX=1;exitY=0;exitDx=0;exitDy=0;entryX=0.5;entryY=1;entryDx=0;entryDy=0;" edge="1" parent="1" target="oAigmpeFDJN5EbFYPB60-202">
          <mxGeometry width="100" height="100" relative="1" as="geometry">
            <mxPoint x="560" y="990" as="sourcePoint" />
            <mxPoint x="890" y="820" as="targetPoint" />
          </mxGeometry>
        </mxCell>
        <mxCell id="oAigmpeFDJN5EbFYPB60-205" value="" style="fontSize=12;html=1;endArrow=none;rounded=0;endFill=0;startSize=0;endSize=0;exitX=1;exitY=0;exitDx=0;exitDy=0;entryX=0.5;entryY=1;entryDx=0;entryDy=0;" edge="1" parent="1">
          <mxGeometry width="100" height="100" relative="1" as="geometry">
            <mxPoint x="500" y="970" as="sourcePoint" />
            <mxPoint x="510" y="950" as="targetPoint" />
          </mxGeometry>
        </mxCell>
        <mxCell id="oAigmpeFDJN5EbFYPB60-207" value="" style="fontSize=12;html=1;endArrow=none;rounded=0;endFill=0;startSize=0;endSize=0;exitX=1;exitY=0;exitDx=0;exitDy=0;entryX=0.5;entryY=1;entryDx=0;entryDy=0;" edge="1" parent="1">
          <mxGeometry width="100" height="100" relative="1" as="geometry">
            <mxPoint x="400" y="970" as="sourcePoint" />
            <mxPoint x="370" y="960" as="targetPoint" />
          </mxGeometry>
        </mxCell>
        <mxCell id="oAigmpeFDJN5EbFYPB60-214" value="teacher_role&lt;br&gt;_id" style="ellipse;whiteSpace=wrap;html=1;align=center;fontStyle=4;" vertex="1" parent="1">
          <mxGeometry x="520" y="710" width="80" height="40" as="geometry" />
        </mxCell>
        <mxCell id="oAigmpeFDJN5EbFYPB60-215" value="" style="fontSize=12;html=1;endArrow=none;rounded=0;endFill=0;startSize=0;endSize=0;exitX=1;exitY=0;exitDx=0;exitDy=0;entryX=0.5;entryY=1;entryDx=0;entryDy=0;" edge="1" parent="1" target="oAigmpeFDJN5EbFYPB60-214">
          <mxGeometry width="100" height="100" relative="1" as="geometry">
            <mxPoint x="490" y="760" as="sourcePoint" />
            <mxPoint x="820" y="590" as="targetPoint" />
          </mxGeometry>
        </mxCell>
        <mxCell id="oAigmpeFDJN5EbFYPB60-225" value="" style="fontSize=12;html=1;endArrow=none;rounded=0;endFill=0;startSize=0;endSize=0;exitX=1;exitY=0;exitDx=0;exitDy=0;entryX=0.49;entryY=1.117;entryDx=0;entryDy=0;entryPerimeter=0;" edge="1" parent="1" target="oAigmpeFDJN5EbFYPB60-407">
          <mxGeometry width="100" height="100" relative="1" as="geometry">
            <mxPoint x="430" y="760" as="sourcePoint" />
            <mxPoint x="470" y="750" as="targetPoint" />
          </mxGeometry>
        </mxCell>
        <mxCell id="oAigmpeFDJN5EbFYPB60-227" value="" style="fontSize=12;html=1;endArrow=none;rounded=0;endFill=0;startSize=0;endSize=0;entryX=0.5;entryY=1;entryDx=0;entryDy=0;" edge="1" parent="1">
          <mxGeometry width="100" height="100" relative="1" as="geometry">
            <mxPoint x="330" y="760" as="sourcePoint" />
            <mxPoint x="350" y="720" as="targetPoint" />
          </mxGeometry>
        </mxCell>
        <mxCell id="oAigmpeFDJN5EbFYPB60-228" value="dept_id" style="ellipse;whiteSpace=wrap;html=1;align=center;fontStyle=4;" vertex="1" parent="1">
          <mxGeometry x="510" y="810" width="80" height="20" as="geometry" />
        </mxCell>
        <mxCell id="oAigmpeFDJN5EbFYPB60-229" value="" style="fontSize=12;html=1;endArrow=none;rounded=0;endFill=0;startSize=0;endSize=0;exitX=1;exitY=0;exitDx=0;exitDy=0;entryX=0.5;entryY=1;entryDx=0;entryDy=0;" edge="1" parent="1" target="oAigmpeFDJN5EbFYPB60-228">
          <mxGeometry width="100" height="100" relative="1" as="geometry">
            <mxPoint x="590" y="840" as="sourcePoint" />
            <mxPoint x="880" y="680" as="targetPoint" />
          </mxGeometry>
        </mxCell>
        <mxCell id="oAigmpeFDJN5EbFYPB60-232" value="" style="fontSize=12;html=1;endArrow=none;rounded=0;endFill=0;startSize=0;endSize=0;exitX=1;exitY=0;exitDx=0;exitDy=0;entryX=0.5;entryY=1;entryDx=0;entryDy=0;" edge="1" parent="1">
          <mxGeometry width="100" height="100" relative="1" as="geometry">
            <mxPoint x="780" y="800" as="sourcePoint" />
            <mxPoint x="740" y="790" as="targetPoint" />
          </mxGeometry>
        </mxCell>
        <mxCell id="oAigmpeFDJN5EbFYPB60-233" value="subject_id" style="ellipse;whiteSpace=wrap;html=1;align=center;fontStyle=4;" vertex="1" parent="1">
          <mxGeometry x="730" y="740" width="80" height="20" as="geometry" />
        </mxCell>
        <mxCell id="oAigmpeFDJN5EbFYPB60-234" value="" style="fontSize=12;html=1;endArrow=none;rounded=0;endFill=0;startSize=0;endSize=0;exitX=1;exitY=0;exitDx=0;exitDy=0;entryX=0.5;entryY=1;entryDx=0;entryDy=0;" edge="1" parent="1" target="oAigmpeFDJN5EbFYPB60-233">
          <mxGeometry width="100" height="100" relative="1" as="geometry">
            <mxPoint x="830" y="800" as="sourcePoint" />
            <mxPoint x="1120" y="640" as="targetPoint" />
          </mxGeometry>
        </mxCell>
        <mxCell id="oAigmpeFDJN5EbFYPB60-236" value="" style="fontSize=12;html=1;endArrow=none;rounded=0;endFill=0;startSize=0;endSize=0;exitX=0;exitY=0;exitDx=0;exitDy=0;entryX=0.5;entryY=1;entryDx=0;entryDy=0;" edge="1" parent="1">
          <mxGeometry width="100" height="100" relative="1" as="geometry">
            <mxPoint x="560" y="640" as="sourcePoint" />
            <mxPoint x="530" y="630" as="targetPoint" />
          </mxGeometry>
        </mxCell>
        <mxCell id="oAigmpeFDJN5EbFYPB60-238" value="" style="fontSize=12;html=1;endArrow=none;rounded=0;endFill=0;startSize=0;endSize=0;exitX=0;exitY=0;exitDx=0;exitDy=0;entryX=0.5;entryY=1;entryDx=0;entryDy=0;" edge="1" parent="1">
          <mxGeometry width="100" height="100" relative="1" as="geometry">
            <mxPoint x="660" y="640" as="sourcePoint" />
            <mxPoint x="640" y="630" as="targetPoint" />
          </mxGeometry>
        </mxCell>
        <mxCell id="oAigmpeFDJN5EbFYPB60-240" value="" style="fontSize=12;html=1;endArrow=none;rounded=0;endFill=0;startSize=0;endSize=0;exitX=0;exitY=0;exitDx=0;exitDy=0;entryX=0.5;entryY=1;entryDx=0;entryDy=0;" edge="1" parent="1">
          <mxGeometry width="100" height="100" relative="1" as="geometry">
            <mxPoint x="1000" y="650" as="sourcePoint" />
            <mxPoint x="970" y="640" as="targetPoint" />
          </mxGeometry>
        </mxCell>
        <mxCell id="oAigmpeFDJN5EbFYPB60-242" value="" style="fontSize=12;html=1;endArrow=none;rounded=0;endFill=0;startSize=0;endSize=0;exitX=0;exitY=0;exitDx=0;exitDy=0;entryX=0.5;entryY=1;entryDx=0;entryDy=0;" edge="1" parent="1">
          <mxGeometry width="100" height="100" relative="1" as="geometry">
            <mxPoint x="1100" y="650" as="sourcePoint" />
            <mxPoint x="1095" y="630" as="targetPoint" />
          </mxGeometry>
        </mxCell>
        <mxCell id="oAigmpeFDJN5EbFYPB60-243" value="cst_id" style="ellipse;whiteSpace=wrap;html=1;align=center;fontStyle=4;" vertex="1" parent="1">
          <mxGeometry x="540" y="585" width="60" height="20" as="geometry" />
        </mxCell>
        <mxCell id="oAigmpeFDJN5EbFYPB60-244" value="" style="fontSize=12;html=1;endArrow=none;rounded=0;endFill=0;startSize=0;endSize=0;exitX=0.5;exitY=0;exitDx=0;exitDy=0;entryX=0.5;entryY=1;entryDx=0;entryDy=0;" edge="1" parent="1" target="oAigmpeFDJN5EbFYPB60-243" source="oAigmpeFDJN5EbFYPB60-30">
          <mxGeometry width="100" height="100" relative="1" as="geometry">
            <mxPoint x="580" y="600" as="sourcePoint" />
            <mxPoint x="910" y="410" as="targetPoint" />
          </mxGeometry>
        </mxCell>
        <mxCell id="oAigmpeFDJN5EbFYPB60-246" value="sqa_id" style="ellipse;whiteSpace=wrap;html=1;align=center;fontStyle=4;" vertex="1" parent="1">
          <mxGeometry x="980" y="600" width="60" height="20" as="geometry" />
        </mxCell>
        <mxCell id="oAigmpeFDJN5EbFYPB60-247" value="" style="fontSize=12;html=1;endArrow=none;rounded=0;endFill=0;startSize=0;endSize=0;exitX=0.5;exitY=0;exitDx=0;exitDy=0;entryX=0.5;entryY=1;entryDx=0;entryDy=0;" edge="1" parent="1" target="oAigmpeFDJN5EbFYPB60-246">
          <mxGeometry width="100" height="100" relative="1" as="geometry">
            <mxPoint x="1050" y="650" as="sourcePoint" />
            <mxPoint x="1350" y="420" as="targetPoint" />
          </mxGeometry>
        </mxCell>
        <mxCell id="oAigmpeFDJN5EbFYPB60-249" value="" style="fontSize=12;html=1;endArrow=none;rounded=0;endFill=0;startSize=0;endSize=0;exitX=0;exitY=0;exitDx=0;exitDy=0;entryX=0.5;entryY=1;entryDx=0;entryDy=0;" edge="1" parent="1" source="oAigmpeFDJN5EbFYPB60-400">
          <mxGeometry width="100" height="100" relative="1" as="geometry">
            <mxPoint x="570" y="540" as="sourcePoint" />
            <mxPoint x="540" y="530" as="targetPoint" />
          </mxGeometry>
        </mxCell>
        <mxCell id="oAigmpeFDJN5EbFYPB60-251" value="" style="fontSize=12;html=1;endArrow=none;rounded=0;endFill=0;startSize=0;endSize=0;exitX=0;exitY=0;exitDx=0;exitDy=0;entryX=0.5;entryY=1;entryDx=0;entryDy=0;" edge="1" parent="1">
          <mxGeometry width="100" height="100" relative="1" as="geometry">
            <mxPoint x="670" y="540" as="sourcePoint" />
            <mxPoint x="650" y="530" as="targetPoint" />
          </mxGeometry>
        </mxCell>
        <mxCell id="oAigmpeFDJN5EbFYPB60-252" value="css_id" style="ellipse;whiteSpace=wrap;html=1;align=center;fontStyle=4;" vertex="1" parent="1">
          <mxGeometry x="550" y="490" width="60" height="20" as="geometry" />
        </mxCell>
        <mxCell id="oAigmpeFDJN5EbFYPB60-253" value="" style="fontSize=12;html=1;endArrow=none;rounded=0;endFill=0;startSize=0;endSize=0;exitX=0.5;exitY=0;exitDx=0;exitDy=0;entryX=0.5;entryY=1;entryDx=0;entryDy=0;" edge="1" parent="1" target="oAigmpeFDJN5EbFYPB60-252">
          <mxGeometry width="100" height="100" relative="1" as="geometry">
            <mxPoint x="620" y="540" as="sourcePoint" />
            <mxPoint x="920" y="310" as="targetPoint" />
          </mxGeometry>
        </mxCell>
        <mxCell id="oAigmpeFDJN5EbFYPB60-254" value="student_id" style="ellipse;whiteSpace=wrap;html=1;align=center;fontStyle=4;" vertex="1" parent="1">
          <mxGeometry x="80" y="340" width="60" height="20" as="geometry" />
        </mxCell>
        <mxCell id="oAigmpeFDJN5EbFYPB60-255" value="" style="fontSize=12;html=1;endArrow=none;rounded=0;endFill=0;startSize=0;endSize=0;exitX=0;exitY=0;exitDx=0;exitDy=0;entryX=0.5;entryY=1;entryDx=0;entryDy=0;" edge="1" parent="1" target="oAigmpeFDJN5EbFYPB60-254">
          <mxGeometry width="100" height="100" relative="1" as="geometry">
            <mxPoint x="140" y="370" as="sourcePoint" />
            <mxPoint x="470" y="180" as="targetPoint" />
          </mxGeometry>
        </mxCell>
        <mxCell id="oAigmpeFDJN5EbFYPB60-257" value="" style="fontSize=12;html=1;endArrow=none;rounded=0;endFill=0;startSize=0;endSize=0;exitX=0.5;exitY=0;exitDx=0;exitDy=0;entryX=0.5;entryY=1;entryDx=0;entryDy=0;" edge="1" parent="1">
          <mxGeometry width="100" height="100" relative="1" as="geometry">
            <mxPoint x="190" y="370" as="sourcePoint" />
            <mxPoint x="170" y="340" as="targetPoint" />
          </mxGeometry>
        </mxCell>
        <mxCell id="oAigmpeFDJN5EbFYPB60-258" value="major_id" style="ellipse;whiteSpace=wrap;html=1;align=center;fontStyle=4;" vertex="1" parent="1">
          <mxGeometry x="480" y="360" width="60" height="20" as="geometry" />
        </mxCell>
        <mxCell id="oAigmpeFDJN5EbFYPB60-259" value="" style="fontSize=12;html=1;endArrow=none;rounded=0;endFill=0;startSize=0;endSize=0;exitX=0;exitY=0;exitDx=0;exitDy=0;entryX=0.5;entryY=1;entryDx=0;entryDy=0;" edge="1" parent="1" target="oAigmpeFDJN5EbFYPB60-258">
          <mxGeometry width="100" height="100" relative="1" as="geometry">
            <mxPoint x="490" y="390" as="sourcePoint" />
            <mxPoint x="820" y="200" as="targetPoint" />
          </mxGeometry>
        </mxCell>
        <mxCell id="oAigmpeFDJN5EbFYPB60-265" value="s_m_id" style="ellipse;whiteSpace=wrap;html=1;align=center;fontStyle=4;" vertex="1" parent="1">
          <mxGeometry x="350" y="340" width="60" height="20" as="geometry" />
        </mxCell>
        <mxCell id="oAigmpeFDJN5EbFYPB60-266" value="" style="fontSize=12;html=1;endArrow=none;rounded=0;endFill=0;startSize=0;endSize=0;exitX=0;exitY=0;exitDx=0;exitDy=0;entryX=0.5;entryY=1;entryDx=0;entryDy=0;" edge="1" parent="1" target="oAigmpeFDJN5EbFYPB60-265">
          <mxGeometry width="100" height="100" relative="1" as="geometry">
            <mxPoint x="360" y="390" as="sourcePoint" />
            <mxPoint x="690" y="200" as="targetPoint" />
          </mxGeometry>
        </mxCell>
        <mxCell id="oAigmpeFDJN5EbFYPB60-268" value="" style="fontSize=12;html=1;endArrow=none;rounded=0;endFill=0;startSize=0;endSize=0;exitX=0;exitY=0;exitDx=0;exitDy=0;entryX=0.5;entryY=1;entryDx=0;entryDy=0;" edge="1" parent="1">
          <mxGeometry width="100" height="100" relative="1" as="geometry">
            <mxPoint x="310" y="390" as="sourcePoint" />
            <mxPoint x="310" y="370" as="targetPoint" />
          </mxGeometry>
        </mxCell>
        <mxCell id="oAigmpeFDJN5EbFYPB60-270" value="" style="fontSize=12;html=1;endArrow=none;rounded=0;endFill=0;startSize=0;endSize=0;exitX=0;exitY=0;exitDx=0;exitDy=0;entryX=0.5;entryY=1;entryDx=0;entryDy=0;" edge="1" parent="1" source="oAigmpeFDJN5EbFYPB60-396">
          <mxGeometry width="100" height="100" relative="1" as="geometry">
            <mxPoint x="670" y="390" as="sourcePoint" />
            <mxPoint x="690" y="380" as="targetPoint" />
          </mxGeometry>
        </mxCell>
        <mxCell id="oAigmpeFDJN5EbFYPB60-271" value="maj_req_id" style="ellipse;whiteSpace=wrap;html=1;align=center;fontStyle=4;" vertex="1" parent="1">
          <mxGeometry x="610" y="340" width="60" height="20" as="geometry" />
        </mxCell>
        <mxCell id="oAigmpeFDJN5EbFYPB60-272" value="" style="fontSize=12;html=1;endArrow=none;rounded=0;endFill=0;startSize=0;endSize=0;exitX=0;exitY=0;exitDx=0;exitDy=0;entryX=0.5;entryY=1;entryDx=0;entryDy=0;" edge="1" parent="1" target="oAigmpeFDJN5EbFYPB60-271">
          <mxGeometry width="100" height="100" relative="1" as="geometry">
            <mxPoint x="620" y="390" as="sourcePoint" />
            <mxPoint x="950" y="200" as="targetPoint" />
          </mxGeometry>
        </mxCell>
        <mxCell id="oAigmpeFDJN5EbFYPB60-274" value="" style="fontSize=12;html=1;endArrow=none;rounded=0;endFill=0;startSize=0;endSize=0;exitX=0;exitY=0;exitDx=0;exitDy=0;entryX=0.5;entryY=1;entryDx=0;entryDy=0;" edge="1" parent="1">
          <mxGeometry width="100" height="100" relative="1" as="geometry">
            <mxPoint x="570" y="390" as="sourcePoint" />
            <mxPoint x="569.9999999999998" y="370" as="targetPoint" />
          </mxGeometry>
        </mxCell>
        <mxCell id="oAigmpeFDJN5EbFYPB60-275" value="class_&lt;br&gt;section_id" style="ellipse;whiteSpace=wrap;html=1;align=center;fontStyle=4;" vertex="1" parent="1">
          <mxGeometry x="950" y="460" width="70" height="30" as="geometry" />
        </mxCell>
        <mxCell id="oAigmpeFDJN5EbFYPB60-276" value="" style="fontSize=12;html=1;endArrow=none;rounded=0;endFill=0;startSize=0;endSize=0;exitX=0;exitY=1;exitDx=0;exitDy=0;entryX=0.5;entryY=0;entryDx=0;entryDy=0;" edge="1" parent="1" target="oAigmpeFDJN5EbFYPB60-275" source="oAigmpeFDJN5EbFYPB60-12">
          <mxGeometry width="100" height="100" relative="1" as="geometry">
            <mxPoint x="1050" y="537.5" as="sourcePoint" />
            <mxPoint x="1380" y="347.5" as="targetPoint" />
          </mxGeometry>
        </mxCell>
        <mxCell id="oAigmpeFDJN5EbFYPB60-277" value="class_id" style="ellipse;whiteSpace=wrap;html=1;align=center;fontStyle=4;" vertex="1" parent="1">
          <mxGeometry x="750" y="350" width="60" height="20" as="geometry" />
        </mxCell>
        <mxCell id="oAigmpeFDJN5EbFYPB60-278" value="" style="fontSize=12;html=1;endArrow=none;rounded=0;endFill=0;startSize=0;endSize=0;exitX=0;exitY=0;exitDx=0;exitDy=0;entryX=0.5;entryY=1;entryDx=0;entryDy=0;" edge="1" parent="1" target="oAigmpeFDJN5EbFYPB60-277">
          <mxGeometry width="100" height="100" relative="1" as="geometry">
            <mxPoint x="780" y="390" as="sourcePoint" />
            <mxPoint x="1110" y="200" as="targetPoint" />
          </mxGeometry>
        </mxCell>
        <mxCell id="oAigmpeFDJN5EbFYPB60-280" value="" style="fontSize=12;html=1;endArrow=none;rounded=0;endFill=0;startSize=0;endSize=0;exitX=0.5;exitY=1;exitDx=0;exitDy=0;entryX=0.5;entryY=0;entryDx=0;entryDy=0;" edge="1" parent="1" source="oAigmpeFDJN5EbFYPB60-12">
          <mxGeometry width="100" height="100" relative="1" as="geometry">
            <mxPoint x="1092.4000000000003" y="536.46" as="sourcePoint" />
            <mxPoint x="1040" y="442.5" as="targetPoint" />
          </mxGeometry>
        </mxCell>
        <mxCell id="oAigmpeFDJN5EbFYPB60-288" value="" style="fontSize=12;html=1;endArrow=none;rounded=0;endFill=0;startSize=0;endSize=0;exitX=1;exitY=1;exitDx=0;exitDy=0;entryX=0.5;entryY=0;entryDx=0;entryDy=0;" edge="1" parent="1" source="oAigmpeFDJN5EbFYPB60-12">
          <mxGeometry width="100" height="100" relative="1" as="geometry">
            <mxPoint x="1150" y="537.5" as="sourcePoint" />
            <mxPoint x="1105" y="462.5" as="targetPoint" />
          </mxGeometry>
        </mxCell>
        <mxCell id="oAigmpeFDJN5EbFYPB60-294" value="student_&lt;br&gt;payment_&lt;br&gt;id" style="ellipse;whiteSpace=wrap;html=1;align=center;fontStyle=4;" vertex="1" parent="1">
          <mxGeometry x="90" y="80" width="60" height="50" as="geometry" />
        </mxCell>
        <mxCell id="oAigmpeFDJN5EbFYPB60-297" value="" style="fontSize=12;html=1;endArrow=none;rounded=0;endFill=0;startSize=0;endSize=0;exitX=0;exitY=0;exitDx=0;exitDy=0;entryX=0.5;entryY=1;entryDx=0;entryDy=0;" edge="1" parent="1" target="oAigmpeFDJN5EbFYPB60-294">
          <mxGeometry width="100" height="100" relative="1" as="geometry">
            <mxPoint x="140" y="170" as="sourcePoint" />
            <mxPoint x="530" y="-30" as="targetPoint" />
          </mxGeometry>
        </mxCell>
        <mxCell id="oAigmpeFDJN5EbFYPB60-298" value="" style="fontSize=12;html=1;endArrow=none;rounded=0;endFill=0;startSize=0;endSize=0;entryX=0.5;entryY=1;entryDx=0;entryDy=0;" edge="1" parent="1">
          <mxGeometry width="100" height="100" relative="1" as="geometry">
            <mxPoint x="240" y="170" as="sourcePoint" />
            <mxPoint x="250" y="150" as="targetPoint" />
          </mxGeometry>
        </mxCell>
        <mxCell id="oAigmpeFDJN5EbFYPB60-302" value="" style="fontSize=12;html=1;endArrow=none;rounded=0;endFill=0;startSize=0;endSize=0;entryX=0.5;entryY=1;entryDx=0;entryDy=0;" edge="1" parent="1">
          <mxGeometry width="100" height="100" relative="1" as="geometry">
            <mxPoint x="190" y="170" as="sourcePoint" />
            <mxPoint x="205" y="115" as="targetPoint" />
          </mxGeometry>
        </mxCell>
        <mxCell id="oAigmpeFDJN5EbFYPB60-303" value="semester_id" style="ellipse;whiteSpace=wrap;html=1;align=center;fontStyle=4;" vertex="1" parent="1">
          <mxGeometry x="720" y="130" width="90" height="20" as="geometry" />
        </mxCell>
        <mxCell id="oAigmpeFDJN5EbFYPB60-304" value="" style="fontSize=12;html=1;endArrow=none;rounded=0;endFill=0;startSize=0;endSize=0;entryX=0.5;entryY=1;entryDx=0;entryDy=0;" edge="1" parent="1" target="oAigmpeFDJN5EbFYPB60-303">
          <mxGeometry width="100" height="100" relative="1" as="geometry">
            <mxPoint x="750" y="170" as="sourcePoint" />
            <mxPoint x="1070" y="-10" as="targetPoint" />
          </mxGeometry>
        </mxCell>
        <mxCell id="oAigmpeFDJN5EbFYPB60-306" value="" style="fontSize=12;html=1;endArrow=none;rounded=0;endFill=0;startSize=0;endSize=0;entryX=0.5;entryY=1;entryDx=0;entryDy=0;" edge="1" parent="1">
          <mxGeometry width="100" height="100" relative="1" as="geometry">
            <mxPoint x="1040" y="390" as="sourcePoint" />
            <mxPoint x="1055" y="370" as="targetPoint" />
          </mxGeometry>
        </mxCell>
        <mxCell id="oAigmpeFDJN5EbFYPB60-307" value="classroom_id" style="ellipse;whiteSpace=wrap;html=1;align=center;fontStyle=4;" vertex="1" parent="1">
          <mxGeometry x="1400" y="585" width="90" height="20" as="geometry" />
        </mxCell>
        <mxCell id="oAigmpeFDJN5EbFYPB60-308" value="" style="fontSize=12;html=1;endArrow=none;rounded=0;endFill=0;startSize=0;endSize=0;entryX=0.5;entryY=1;entryDx=0;entryDy=0;" edge="1" parent="1" target="oAigmpeFDJN5EbFYPB60-307">
          <mxGeometry width="100" height="100" relative="1" as="geometry">
            <mxPoint x="1490" y="625" as="sourcePoint" />
            <mxPoint x="1810" y="445" as="targetPoint" />
          </mxGeometry>
        </mxCell>
        <mxCell id="oAigmpeFDJN5EbFYPB60-309" value="classroom_&lt;br&gt;resource_id" style="ellipse;whiteSpace=wrap;html=1;align=center;fontStyle=4;" vertex="1" parent="1">
          <mxGeometry x="1710" y="575" width="90" height="40" as="geometry" />
        </mxCell>
        <mxCell id="oAigmpeFDJN5EbFYPB60-310" value="" style="fontSize=12;html=1;endArrow=none;rounded=0;endFill=0;startSize=0;endSize=0;entryX=0.5;entryY=1;entryDx=0;entryDy=0;" edge="1" parent="1" target="oAigmpeFDJN5EbFYPB60-309">
          <mxGeometry width="100" height="100" relative="1" as="geometry">
            <mxPoint x="1800" y="625" as="sourcePoint" />
            <mxPoint x="2120" y="445" as="targetPoint" />
          </mxGeometry>
        </mxCell>
        <mxCell id="oAigmpeFDJN5EbFYPB60-312" value="" style="fontSize=12;html=1;endArrow=none;rounded=0;endFill=0;startSize=0;endSize=0;entryX=0.5;entryY=1;entryDx=0;entryDy=0;" edge="1" parent="1" target="oAigmpeFDJN5EbFYPB60-386">
          <mxGeometry width="100" height="100" relative="1" as="geometry">
            <mxPoint x="1670" y="625" as="sourcePoint" />
            <mxPoint x="1655" y="615" as="targetPoint" />
          </mxGeometry>
        </mxCell>
        <mxCell id="oAigmpeFDJN5EbFYPB60-314" value="" style="fontSize=12;html=1;endArrow=none;rounded=0;endFill=0;startSize=0;endSize=0;entryX=0.5;entryY=1;entryDx=0;entryDy=0;" edge="1" parent="1">
          <mxGeometry width="100" height="100" relative="1" as="geometry">
            <mxPoint x="1570" y="625" as="sourcePoint" />
            <mxPoint x="1545" y="605" as="targetPoint" />
          </mxGeometry>
        </mxCell>
        <mxCell id="oAigmpeFDJN5EbFYPB60-315" value="ccr_id" style="ellipse;whiteSpace=wrap;html=1;align=center;fontStyle=4;" vertex="1" parent="1">
          <mxGeometry x="1550" y="555" width="90" height="20" as="geometry" />
        </mxCell>
        <mxCell id="oAigmpeFDJN5EbFYPB60-316" value="" style="fontSize=12;html=1;endArrow=none;rounded=0;endFill=0;startSize=0;endSize=0;entryX=0.5;entryY=1;entryDx=0;entryDy=0;" edge="1" parent="1" target="oAigmpeFDJN5EbFYPB60-315">
          <mxGeometry width="100" height="100" relative="1" as="geometry">
            <mxPoint x="1620" y="625" as="sourcePoint" />
            <mxPoint x="1940" y="445" as="targetPoint" />
          </mxGeometry>
        </mxCell>
        <mxCell id="oAigmpeFDJN5EbFYPB60-318" value="quiz_&lt;br&gt;answer_id" style="ellipse;whiteSpace=wrap;html=1;align=center;fontStyle=4;" vertex="1" parent="1">
          <mxGeometry x="1770" y="420" width="70" height="30" as="geometry" />
        </mxCell>
        <mxCell id="oAigmpeFDJN5EbFYPB60-319" value="" style="fontSize=12;html=1;endArrow=none;rounded=0;endFill=0;startSize=0;endSize=0;exitX=0;exitY=0;exitDx=0;exitDy=0;entryX=0.5;entryY=1;entryDx=0;entryDy=0;" edge="1" parent="1" target="oAigmpeFDJN5EbFYPB60-318">
          <mxGeometry width="100" height="100" relative="1" as="geometry">
            <mxPoint x="1800" y="460" as="sourcePoint" />
            <mxPoint x="2130" y="270" as="targetPoint" />
          </mxGeometry>
        </mxCell>
        <mxCell id="oAigmpeFDJN5EbFYPB60-321" value="" style="fontSize=12;html=1;endArrow=none;rounded=0;endFill=0;startSize=0;endSize=0;exitX=0;exitY=0;exitDx=0;exitDy=0;entryX=0.5;entryY=1;entryDx=0;entryDy=0;" edge="1" parent="1" source="oAigmpeFDJN5EbFYPB60-378">
          <mxGeometry width="100" height="100" relative="1" as="geometry">
            <mxPoint x="1900" y="460" as="sourcePoint" />
            <mxPoint x="1875" y="450" as="targetPoint" />
          </mxGeometry>
        </mxCell>
        <mxCell id="oAigmpeFDJN5EbFYPB60-323" value="quiz_&lt;br&gt;question_id" style="ellipse;whiteSpace=wrap;html=1;align=center;fontStyle=4;" vertex="1" parent="1">
          <mxGeometry x="1770" y="320" width="70" height="30" as="geometry" />
        </mxCell>
        <mxCell id="oAigmpeFDJN5EbFYPB60-324" value="" style="fontSize=12;html=1;endArrow=none;rounded=0;endFill=0;startSize=0;endSize=0;exitX=0;exitY=0;exitDx=0;exitDy=0;entryX=0.5;entryY=1;entryDx=0;entryDy=0;" edge="1" parent="1" target="oAigmpeFDJN5EbFYPB60-323">
          <mxGeometry width="100" height="100" relative="1" as="geometry">
            <mxPoint x="1800" y="360" as="sourcePoint" />
            <mxPoint x="2130" y="170" as="targetPoint" />
          </mxGeometry>
        </mxCell>
        <mxCell id="oAigmpeFDJN5EbFYPB60-326" value="" style="fontSize=12;html=1;endArrow=none;rounded=0;endFill=0;startSize=0;endSize=0;exitX=0;exitY=0;exitDx=0;exitDy=0;entryX=0.5;entryY=1;entryDx=0;entryDy=0;" edge="1" parent="1">
          <mxGeometry width="100" height="100" relative="1" as="geometry">
            <mxPoint x="1900" y="360" as="sourcePoint" />
            <mxPoint x="1875" y="350" as="targetPoint" />
          </mxGeometry>
        </mxCell>
        <mxCell id="oAigmpeFDJN5EbFYPB60-327" value="quiz_id" style="ellipse;whiteSpace=wrap;html=1;align=center;fontStyle=4;" vertex="1" parent="1">
          <mxGeometry x="1610" y="330" width="70" height="20" as="geometry" />
        </mxCell>
        <mxCell id="oAigmpeFDJN5EbFYPB60-328" value="" style="fontSize=12;html=1;endArrow=none;rounded=0;endFill=0;startSize=0;endSize=0;exitX=0;exitY=0;exitDx=0;exitDy=0;entryX=0.5;entryY=1;entryDx=0;entryDy=0;" edge="1" parent="1" target="oAigmpeFDJN5EbFYPB60-327">
          <mxGeometry width="100" height="100" relative="1" as="geometry">
            <mxPoint x="1640" y="360" as="sourcePoint" />
            <mxPoint x="1970" y="170" as="targetPoint" />
          </mxGeometry>
        </mxCell>
        <mxCell id="oAigmpeFDJN5EbFYPB60-330" value="" style="fontSize=12;html=1;endArrow=none;rounded=0;endFill=0;startSize=0;endSize=0;exitX=0;exitY=0;exitDx=0;exitDy=0;entryX=0.5;entryY=1;entryDx=0;entryDy=0;" edge="1" parent="1">
          <mxGeometry width="100" height="100" relative="1" as="geometry">
            <mxPoint x="1540" y="360" as="sourcePoint" />
            <mxPoint x="1545" y="350" as="targetPoint" />
          </mxGeometry>
        </mxCell>
        <mxCell id="oAigmpeFDJN5EbFYPB60-331" value="doc_id" style="ellipse;whiteSpace=wrap;html=1;align=center;fontStyle=4;" vertex="1" parent="1">
          <mxGeometry x="1610" y="250" width="70" height="20" as="geometry" />
        </mxCell>
        <mxCell id="oAigmpeFDJN5EbFYPB60-332" value="" style="fontSize=12;html=1;endArrow=none;rounded=0;endFill=0;startSize=0;endSize=0;exitX=0;exitY=0;exitDx=0;exitDy=0;entryX=0.5;entryY=1;entryDx=0;entryDy=0;" edge="1" parent="1" target="oAigmpeFDJN5EbFYPB60-331">
          <mxGeometry width="100" height="100" relative="1" as="geometry">
            <mxPoint x="1640" y="280" as="sourcePoint" />
            <mxPoint x="1970" y="90" as="targetPoint" />
          </mxGeometry>
        </mxCell>
        <mxCell id="oAigmpeFDJN5EbFYPB60-334" value="" style="fontSize=12;html=1;endArrow=none;rounded=0;endFill=0;startSize=0;endSize=0;exitX=0;exitY=0;exitDx=0;exitDy=0;entryX=0.5;entryY=1;entryDx=0;entryDy=0;" edge="1" parent="1">
          <mxGeometry width="100" height="100" relative="1" as="geometry">
            <mxPoint x="1540" y="280" as="sourcePoint" />
            <mxPoint x="1545" y="270" as="targetPoint" />
          </mxGeometry>
        </mxCell>
        <mxCell id="oAigmpeFDJN5EbFYPB60-340" value="assn_id" style="ellipse;whiteSpace=wrap;html=1;align=center;fontStyle=4;" vertex="1" parent="1">
          <mxGeometry x="1610" y="170" width="70" height="20" as="geometry" />
        </mxCell>
        <mxCell id="oAigmpeFDJN5EbFYPB60-341" value="" style="fontSize=12;html=1;endArrow=none;rounded=0;endFill=0;startSize=0;endSize=0;exitX=0;exitY=0;exitDx=0;exitDy=0;entryX=0.5;entryY=1;entryDx=0;entryDy=0;" edge="1" parent="1" target="oAigmpeFDJN5EbFYPB60-340">
          <mxGeometry width="100" height="100" relative="1" as="geometry">
            <mxPoint x="1640" y="200" as="sourcePoint" />
            <mxPoint x="1970" y="10" as="targetPoint" />
          </mxGeometry>
        </mxCell>
        <mxCell id="oAigmpeFDJN5EbFYPB60-343" value="" style="fontSize=12;html=1;endArrow=none;rounded=0;endFill=0;startSize=0;endSize=0;exitX=0;exitY=0;exitDx=0;exitDy=0;entryX=0.5;entryY=1;entryDx=0;entryDy=0;" edge="1" parent="1">
          <mxGeometry width="100" height="100" relative="1" as="geometry">
            <mxPoint x="1540" y="200" as="sourcePoint" />
            <mxPoint x="1545" y="190" as="targetPoint" />
          </mxGeometry>
        </mxCell>
        <mxCell id="oAigmpeFDJN5EbFYPB60-344" value="rr_id" style="ellipse;whiteSpace=wrap;html=1;align=center;fontStyle=4;" vertex="1" parent="1">
          <mxGeometry x="1430" y="110" width="70" height="20" as="geometry" />
        </mxCell>
        <mxCell id="oAigmpeFDJN5EbFYPB60-345" value="" style="fontSize=12;html=1;endArrow=none;rounded=0;endFill=0;startSize=0;endSize=0;exitX=0;exitY=0;exitDx=0;exitDy=0;entryX=0.5;entryY=1;entryDx=0;entryDy=0;" edge="1" parent="1" target="oAigmpeFDJN5EbFYPB60-344">
          <mxGeometry width="100" height="100" relative="1" as="geometry">
            <mxPoint x="1460" y="140" as="sourcePoint" />
            <mxPoint x="1790" y="-50" as="targetPoint" />
          </mxGeometry>
        </mxCell>
        <mxCell id="oAigmpeFDJN5EbFYPB60-347" value="" style="fontSize=12;html=1;endArrow=none;rounded=0;endFill=0;startSize=0;endSize=0;exitX=0;exitY=0;exitDx=0;exitDy=0;entryX=0.5;entryY=1;entryDx=0;entryDy=0;" edge="1" parent="1">
          <mxGeometry width="100" height="100" relative="1" as="geometry">
            <mxPoint x="1360" y="140" as="sourcePoint" />
            <mxPoint x="1365" y="130" as="targetPoint" />
          </mxGeometry>
        </mxCell>
        <mxCell id="oAigmpeFDJN5EbFYPB60-351" value="module_id" style="ellipse;whiteSpace=wrap;html=1;align=center;fontStyle=4;" vertex="1" parent="1">
          <mxGeometry x="1300" y="250" width="70" height="20" as="geometry" />
        </mxCell>
        <mxCell id="oAigmpeFDJN5EbFYPB60-352" value="" style="fontSize=12;html=1;endArrow=none;rounded=0;endFill=0;startSize=0;endSize=0;exitX=0;exitY=0;exitDx=0;exitDy=0;entryX=0.5;entryY=1;entryDx=0;entryDy=0;" edge="1" parent="1" target="oAigmpeFDJN5EbFYPB60-351">
          <mxGeometry width="100" height="100" relative="1" as="geometry">
            <mxPoint x="1350" y="280" as="sourcePoint" />
            <mxPoint x="1680" y="90" as="targetPoint" />
          </mxGeometry>
        </mxCell>
        <mxCell id="oAigmpeFDJN5EbFYPB60-354" value="" style="fontSize=12;html=1;endArrow=none;rounded=0;endFill=0;startSize=0;endSize=0;exitX=0;exitY=0;exitDx=0;exitDy=0;entryX=0.5;entryY=1;entryDx=0;entryDy=0;" edge="1" parent="1">
          <mxGeometry width="100" height="100" relative="1" as="geometry">
            <mxPoint x="1250" y="280" as="sourcePoint" />
            <mxPoint x="1255" y="270" as="targetPoint" />
          </mxGeometry>
        </mxCell>
        <mxCell id="oAigmpeFDJN5EbFYPB60-356" value="" style="fontSize=12;html=1;endArrow=none;rounded=0;endFill=0;startSize=0;endSize=0;exitX=0;exitY=0;exitDx=0;exitDy=0;entryX=0.5;entryY=1;entryDx=0;entryDy=0;" edge="1" parent="1">
          <mxGeometry width="100" height="100" relative="1" as="geometry">
            <mxPoint x="990" y="60" as="sourcePoint" />
            <mxPoint x="960" y="50" as="targetPoint" />
          </mxGeometry>
        </mxCell>
        <mxCell id="oAigmpeFDJN5EbFYPB60-358" value="" style="fontSize=12;html=1;endArrow=none;rounded=0;endFill=0;startSize=0;endSize=0;exitX=0;exitY=0;exitDx=0;exitDy=0;entryX=0.5;entryY=1;entryDx=0;entryDy=0;" edge="1" parent="1">
          <mxGeometry width="100" height="100" relative="1" as="geometry">
            <mxPoint x="1090" y="60" as="sourcePoint" />
            <mxPoint x="1085" y="40" as="targetPoint" />
          </mxGeometry>
        </mxCell>
        <mxCell id="oAigmpeFDJN5EbFYPB60-359" value="sca_id" style="ellipse;whiteSpace=wrap;html=1;align=center;fontStyle=4;" vertex="1" parent="1">
          <mxGeometry x="970" y="10" width="60" height="20" as="geometry" />
        </mxCell>
        <mxCell id="oAigmpeFDJN5EbFYPB60-360" value="" style="fontSize=12;html=1;endArrow=none;rounded=0;endFill=0;startSize=0;endSize=0;exitX=0.5;exitY=0;exitDx=0;exitDy=0;entryX=0.5;entryY=1;entryDx=0;entryDy=0;" edge="1" parent="1" target="oAigmpeFDJN5EbFYPB60-359">
          <mxGeometry width="100" height="100" relative="1" as="geometry">
            <mxPoint x="1040" y="60" as="sourcePoint" />
            <mxPoint x="1340" y="-170" as="targetPoint" />
          </mxGeometry>
        </mxCell>
        <mxCell id="oAigmpeFDJN5EbFYPB60-369" value="&lt;span style=&quot;border-bottom: 1px dotted&quot;&gt;student_id&lt;/span&gt;" style="ellipse;whiteSpace=wrap;html=1;align=center;" vertex="1" parent="1">
          <mxGeometry x="210" y="130" width="80" height="20" as="geometry" />
        </mxCell>
        <mxCell id="oAigmpeFDJN5EbFYPB60-370" value="&lt;span style=&quot;border-bottom: 1px dotted&quot;&gt;semester_id&lt;/span&gt;" style="ellipse;whiteSpace=wrap;html=1;align=center;" vertex="1" parent="1">
          <mxGeometry x="170" y="95" width="120" height="20" as="geometry" />
        </mxCell>
        <mxCell id="oAigmpeFDJN5EbFYPB60-371" value="&lt;span style=&quot;border-bottom: 1px dotted&quot;&gt;student_id&lt;/span&gt;" style="ellipse;whiteSpace=wrap;html=1;align=center;" vertex="1" parent="1">
          <mxGeometry x="920" y="30" width="80" height="20" as="geometry" />
        </mxCell>
        <mxCell id="oAigmpeFDJN5EbFYPB60-372" value="&lt;span style=&quot;border-bottom: 1px dotted&quot;&gt;assn_id&lt;/span&gt;" style="ellipse;whiteSpace=wrap;html=1;align=center;" vertex="1" parent="1">
          <mxGeometry x="1040" y="20" width="80" height="20" as="geometry" />
        </mxCell>
        <mxCell id="oAigmpeFDJN5EbFYPB60-374" value="&lt;span style=&quot;border-bottom: 1px dotted&quot;&gt;class_&lt;br&gt;section_id&lt;br&gt;&lt;/span&gt;" style="ellipse;whiteSpace=wrap;html=1;align=center;" vertex="1" parent="1">
          <mxGeometry x="1330" y="90" width="80" height="40" as="geometry" />
        </mxCell>
        <mxCell id="oAigmpeFDJN5EbFYPB60-375" value="&lt;span style=&quot;border-bottom: 1px dotted&quot;&gt;class_&lt;br&gt;section_id&lt;br&gt;&lt;/span&gt;" style="ellipse;whiteSpace=wrap;html=1;align=center;" vertex="1" parent="1">
          <mxGeometry x="1220" y="230" width="80" height="40" as="geometry" />
        </mxCell>
        <mxCell id="oAigmpeFDJN5EbFYPB60-376" value="&lt;span style=&quot;border-bottom: 1px dotted&quot;&gt;module_id&lt;br&gt;&lt;/span&gt;" style="ellipse;whiteSpace=wrap;html=1;align=center;" vertex="1" parent="1">
          <mxGeometry x="1520" y="170" width="70" height="20" as="geometry" />
        </mxCell>
        <mxCell id="oAigmpeFDJN5EbFYPB60-377" value="&lt;span style=&quot;border-bottom: 1px dotted&quot;&gt;module_id&lt;br&gt;&lt;/span&gt;" style="ellipse;whiteSpace=wrap;html=1;align=center;" vertex="1" parent="1">
          <mxGeometry x="1520" y="250" width="70" height="20" as="geometry" />
        </mxCell>
        <mxCell id="oAigmpeFDJN5EbFYPB60-379" value="&lt;span style=&quot;border-bottom: 1px dotted&quot;&gt;module_id&lt;br&gt;&lt;/span&gt;" style="ellipse;whiteSpace=wrap;html=1;align=center;" vertex="1" parent="1">
          <mxGeometry x="1510" y="330" width="70" height="20" as="geometry" />
        </mxCell>
        <mxCell id="oAigmpeFDJN5EbFYPB60-380" value="&lt;span style=&quot;border-bottom: 1px dotted&quot;&gt;quiz_id&lt;br&gt;&lt;/span&gt;" style="ellipse;whiteSpace=wrap;html=1;align=center;" vertex="1" parent="1">
          <mxGeometry x="1850" y="330" width="50" height="20" as="geometry" />
        </mxCell>
        <mxCell id="oAigmpeFDJN5EbFYPB60-381" value="" style="fontSize=12;html=1;endArrow=none;rounded=0;endFill=0;startSize=0;endSize=0;exitX=0;exitY=0;exitDx=0;exitDy=0;entryX=0.5;entryY=1;entryDx=0;entryDy=0;" edge="1" parent="1" target="oAigmpeFDJN5EbFYPB60-378">
          <mxGeometry width="100" height="100" relative="1" as="geometry">
            <mxPoint x="1900" y="460" as="sourcePoint" />
            <mxPoint x="1875" y="450" as="targetPoint" />
          </mxGeometry>
        </mxCell>
        <mxCell id="oAigmpeFDJN5EbFYPB60-378" value="&lt;span style=&quot;border-bottom: 1px dotted&quot;&gt;quiz_&lt;br&gt;question_id&lt;br&gt;&lt;/span&gt;" style="ellipse;whiteSpace=wrap;html=1;align=center;" vertex="1" parent="1">
          <mxGeometry x="1840" y="420" width="70" height="30" as="geometry" />
        </mxCell>
        <mxCell id="oAigmpeFDJN5EbFYPB60-382" value="&lt;span style=&quot;border-bottom: 1px dotted&quot;&gt;classroom_id&lt;br&gt;&lt;/span&gt;" style="ellipse;whiteSpace=wrap;html=1;align=center;" vertex="1" parent="1">
          <mxGeometry x="1490" y="580" width="100" height="25" as="geometry" />
        </mxCell>
        <mxCell id="oAigmpeFDJN5EbFYPB60-384" value="&lt;span style=&quot;border-bottom: 1px dotted&quot;&gt;student_id&lt;br&gt;&lt;/span&gt;" style="ellipse;whiteSpace=wrap;html=1;align=center;" vertex="1" parent="1">
          <mxGeometry x="930" y="620" width="70" height="20" as="geometry" />
        </mxCell>
        <mxCell id="oAigmpeFDJN5EbFYPB60-385" value="&lt;span style=&quot;border-bottom: 1px dotted&quot;&gt;quiz_&lt;br&gt;answer_id&lt;br&gt;&lt;/span&gt;" style="ellipse;whiteSpace=wrap;html=1;align=center;" vertex="1" parent="1">
          <mxGeometry x="1070" y="610" width="70" height="30" as="geometry" />
        </mxCell>
        <mxCell id="oAigmpeFDJN5EbFYPB60-386" value="&lt;span style=&quot;border-bottom: 1px dotted&quot;&gt;classroom_&lt;br&gt;resource_id&lt;br&gt;&lt;/span&gt;" style="ellipse;whiteSpace=wrap;html=1;align=center;" vertex="1" parent="1">
          <mxGeometry x="1610" y="580" width="100" height="32.5" as="geometry" />
        </mxCell>
        <mxCell id="oAigmpeFDJN5EbFYPB60-387" value="&lt;span style=&quot;border-bottom: 1px dotted&quot;&gt;semester_id&lt;br&gt;&lt;/span&gt;" style="ellipse;whiteSpace=wrap;html=1;align=center;" vertex="1" parent="1">
          <mxGeometry x="1065" y="460" width="80" height="20" as="geometry" />
        </mxCell>
        <mxCell id="oAigmpeFDJN5EbFYPB60-388" value="&lt;span style=&quot;border-bottom: 1px dotted&quot;&gt;class_id&lt;br&gt;&lt;/span&gt;" style="ellipse;whiteSpace=wrap;html=1;align=center;" vertex="1" parent="1">
          <mxGeometry x="1012.5" y="440" width="55" height="20" as="geometry" />
        </mxCell>
        <mxCell id="oAigmpeFDJN5EbFYPB60-390" value="&lt;span style=&quot;border-bottom: 1px dotted&quot;&gt;classroom_id&lt;br&gt;&lt;/span&gt;" style="ellipse;whiteSpace=wrap;html=1;align=center;" vertex="1" parent="1">
          <mxGeometry x="1000" y="350" width="90" height="20" as="geometry" />
        </mxCell>
        <mxCell id="oAigmpeFDJN5EbFYPB60-391" value="&lt;span style=&quot;border-bottom: 1px dotted&quot;&gt;student_id&lt;/span&gt;" style="ellipse;whiteSpace=wrap;html=1;align=center;" vertex="1" parent="1">
          <mxGeometry x="280" y="350" width="60" height="20" as="geometry" />
        </mxCell>
        <mxCell id="oAigmpeFDJN5EbFYPB60-395" value="" style="fontSize=12;html=1;endArrow=none;rounded=0;endFill=0;startSize=0;endSize=0;exitX=0;exitY=0;exitDx=0;exitDy=0;entryX=0.5;entryY=1;entryDx=0;entryDy=0;" edge="1" parent="1" target="oAigmpeFDJN5EbFYPB60-393">
          <mxGeometry width="100" height="100" relative="1" as="geometry">
            <mxPoint x="410" y="390" as="sourcePoint" />
            <mxPoint x="430" y="380" as="targetPoint" />
          </mxGeometry>
        </mxCell>
        <mxCell id="oAigmpeFDJN5EbFYPB60-393" value="&lt;span style=&quot;border-bottom: 1px dotted&quot;&gt;major_id&lt;/span&gt;" style="ellipse;whiteSpace=wrap;html=1;align=center;" vertex="1" parent="1">
          <mxGeometry x="420" y="350" width="60" height="20" as="geometry" />
        </mxCell>
        <mxCell id="oAigmpeFDJN5EbFYPB60-397" value="" style="fontSize=12;html=1;endArrow=none;rounded=0;endFill=0;startSize=0;endSize=0;exitX=0;exitY=0;exitDx=0;exitDy=0;entryX=0.5;entryY=1;entryDx=0;entryDy=0;" edge="1" parent="1" target="oAigmpeFDJN5EbFYPB60-396">
          <mxGeometry width="100" height="100" relative="1" as="geometry">
            <mxPoint x="670" y="390" as="sourcePoint" />
            <mxPoint x="690" y="380" as="targetPoint" />
          </mxGeometry>
        </mxCell>
        <mxCell id="oAigmpeFDJN5EbFYPB60-396" value="&lt;span style=&quot;border-bottom: 1px dotted&quot;&gt;major_id&lt;/span&gt;" style="ellipse;whiteSpace=wrap;html=1;align=center;" vertex="1" parent="1">
          <mxGeometry x="660" y="360" width="60" height="20" as="geometry" />
        </mxCell>
        <mxCell id="oAigmpeFDJN5EbFYPB60-398" value="&lt;span style=&quot;border-bottom: 1px dotted&quot;&gt;class_id&lt;/span&gt;" style="ellipse;whiteSpace=wrap;html=1;align=center;" vertex="1" parent="1">
          <mxGeometry x="540" y="350" width="60" height="20" as="geometry" />
        </mxCell>
        <mxCell id="oAigmpeFDJN5EbFYPB60-399" value="&lt;span style=&quot;border-bottom: 1px dotted&quot;&gt;class_&lt;br&gt;section_id&lt;br&gt;&lt;/span&gt;" style="ellipse;whiteSpace=wrap;html=1;align=center;" vertex="1" parent="1">
          <mxGeometry x="610" y="490" width="80" height="40" as="geometry" />
        </mxCell>
        <mxCell id="oAigmpeFDJN5EbFYPB60-402" value="" style="fontSize=12;html=1;endArrow=none;rounded=0;endFill=0;startSize=0;endSize=0;exitX=0;exitY=0;exitDx=0;exitDy=0;entryX=0.5;entryY=1;entryDx=0;entryDy=0;" edge="1" parent="1" target="oAigmpeFDJN5EbFYPB60-400">
          <mxGeometry width="100" height="100" relative="1" as="geometry">
            <mxPoint x="570" y="540" as="sourcePoint" />
            <mxPoint x="540" y="530" as="targetPoint" />
          </mxGeometry>
        </mxCell>
        <mxCell id="oAigmpeFDJN5EbFYPB60-400" value="&lt;span style=&quot;border-bottom: 1px dotted&quot;&gt;student_id&lt;/span&gt;" style="ellipse;whiteSpace=wrap;html=1;align=center;" vertex="1" parent="1">
          <mxGeometry x="500" y="507" width="60" height="20" as="geometry" />
        </mxCell>
        <mxCell id="oAigmpeFDJN5EbFYPB60-403" value="&lt;span style=&quot;border-bottom: 1px dotted&quot;&gt;teacher_id&lt;/span&gt;" style="ellipse;whiteSpace=wrap;html=1;align=center;" vertex="1" parent="1">
          <mxGeometry x="500" y="610" width="60" height="20" as="geometry" />
        </mxCell>
        <mxCell id="oAigmpeFDJN5EbFYPB60-404" value="&lt;span style=&quot;border-bottom: 1px dotted&quot;&gt;class_&lt;br&gt;section_id&lt;br&gt;&lt;/span&gt;" style="ellipse;whiteSpace=wrap;html=1;align=center;" vertex="1" parent="1">
          <mxGeometry x="600" y="590" width="80" height="40" as="geometry" />
        </mxCell>
        <mxCell id="oAigmpeFDJN5EbFYPB60-405" value="&lt;span style=&quot;border-bottom: 1px dotted&quot;&gt;teacher_id&lt;/span&gt;" style="ellipse;whiteSpace=wrap;html=1;align=center;" vertex="1" parent="1">
          <mxGeometry x="320" y="700" width="60" height="20" as="geometry" />
        </mxCell>
        <mxCell id="oAigmpeFDJN5EbFYPB60-407" value="&lt;span style=&quot;border-bottom: 1px dotted&quot;&gt;teacher_&lt;br&gt;role_id&lt;br&gt;&lt;/span&gt;" style="ellipse;whiteSpace=wrap;html=1;align=center;" vertex="1" parent="1">
          <mxGeometry x="420" y="700" width="80" height="40" as="geometry" />
        </mxCell>
        <mxCell id="oAigmpeFDJN5EbFYPB60-409" value="" style="fontSize=12;html=1;endArrow=none;rounded=0;endFill=0;startSize=0;endSize=0;exitX=1;exitY=0;exitDx=0;exitDy=0;" edge="1" parent="1" source="oAigmpeFDJN5EbFYPB60-415">
          <mxGeometry width="100" height="100" relative="1" as="geometry">
            <mxPoint x="375.5" y="760" as="sourcePoint" />
            <mxPoint x="390" y="740" as="targetPoint" />
          </mxGeometry>
        </mxCell>
        <mxCell id="oAigmpeFDJN5EbFYPB60-412" value="" style="fontSize=12;html=1;endArrow=none;rounded=0;endFill=0;startSize=0;endSize=0;exitX=1;exitY=0;exitDx=0;exitDy=0;entryX=0.5;entryY=1;entryDx=0;entryDy=0;" edge="1" parent="1">
          <mxGeometry width="100" height="100" relative="1" as="geometry">
            <mxPoint x="447.75" y="970" as="sourcePoint" />
            <mxPoint x="455" y="950" as="targetPoint" />
          </mxGeometry>
        </mxCell>
        <mxCell id="oAigmpeFDJN5EbFYPB60-416" value="" style="fontSize=12;html=1;endArrow=none;rounded=0;endFill=0;startSize=0;endSize=0;exitX=1;exitY=0;exitDx=0;exitDy=0;" edge="1" parent="1" target="oAigmpeFDJN5EbFYPB60-415">
          <mxGeometry width="100" height="100" relative="1" as="geometry">
            <mxPoint x="375.5" y="760" as="sourcePoint" />
            <mxPoint x="390" y="740" as="targetPoint" />
          </mxGeometry>
        </mxCell>
        <mxCell id="oAigmpeFDJN5EbFYPB60-415" value="ttr_id" style="ellipse;whiteSpace=wrap;html=1;align=center;fontStyle=4;" vertex="1" parent="1">
          <mxGeometry x="360" y="720" width="60" height="20" as="geometry" />
        </mxCell>
        <mxCell id="oAigmpeFDJN5EbFYPB60-417" value="ssr_id" style="ellipse;whiteSpace=wrap;html=1;align=center;fontStyle=4;" vertex="1" parent="1">
          <mxGeometry x="420" y="930" width="60" height="20" as="geometry" />
        </mxCell>
        <mxCell id="oAigmpeFDJN5EbFYPB60-418" value="&lt;span style=&quot;border-bottom: 1px dotted&quot;&gt;staff_id&lt;/span&gt;" style="ellipse;whiteSpace=wrap;html=1;align=center;" vertex="1" parent="1">
          <mxGeometry x="340" y="940" width="60" height="20" as="geometry" />
        </mxCell>
        <mxCell id="oAigmpeFDJN5EbFYPB60-419" value="&lt;span style=&quot;border-bottom: 1px dotted&quot;&gt;staff_&lt;br&gt;role_id&lt;br&gt;&lt;/span&gt;" style="ellipse;whiteSpace=wrap;html=1;align=center;" vertex="1" parent="1">
          <mxGeometry x="480" y="900" width="60" height="50" as="geometry" />
        </mxCell>
        <mxCell id="oAigmpeFDJN5EbFYPB60-421" value="&lt;span style=&quot;border-bottom: 1px dotted&quot;&gt;dept_id&lt;/span&gt;" style="ellipse;whiteSpace=wrap;html=1;align=center;" vertex="1" parent="1">
          <mxGeometry x="170" y="860" width="60" height="20" as="geometry" />
        </mxCell>
        <mxCell id="oAigmpeFDJN5EbFYPB60-422" value="&lt;span style=&quot;border-bottom: 1px dotted&quot;&gt;parking_id&lt;/span&gt;" style="ellipse;whiteSpace=wrap;html=1;align=center;" vertex="1" parent="1">
          <mxGeometry x="150" y="890" width="60" height="20" as="geometry" />
        </mxCell>
        <mxCell id="oAigmpeFDJN5EbFYPB60-423" value="" style="fontSize=12;html=1;endArrow=none;rounded=0;endFill=0;startSize=0;endSize=0;entryX=0.5;entryY=1;entryDx=0;entryDy=0;" edge="1" parent="1" target="oAigmpeFDJN5EbFYPB60-420">
          <mxGeometry width="100" height="100" relative="1" as="geometry">
            <mxPoint x="110" y="890" as="sourcePoint" />
            <mxPoint x="69.99999999999989" y="870" as="targetPoint" />
          </mxGeometry>
        </mxCell>
        <mxCell id="oAigmpeFDJN5EbFYPB60-420" value="&lt;span style=&quot;border-bottom: 1px dotted&quot;&gt;teacher_id&lt;/span&gt;" style="ellipse;whiteSpace=wrap;html=1;align=center;" vertex="1" parent="1">
          <mxGeometry x="40" y="850" width="60" height="20" as="geometry" />
        </mxCell>
        <mxCell id="oAigmpeFDJN5EbFYPB60-424" value="&lt;span style=&quot;border-bottom: 1px dotted&quot;&gt;dept_id&lt;/span&gt;" style="ellipse;whiteSpace=wrap;html=1;align=center;" vertex="1" parent="1">
          <mxGeometry x="180" y="680" width="60" height="20" as="geometry" />
        </mxCell>
        <mxCell id="oAigmpeFDJN5EbFYPB60-425" value="&lt;span style=&quot;border-bottom: 1px dotted&quot;&gt;parking_id&lt;/span&gt;" style="ellipse;whiteSpace=wrap;html=1;align=center;" vertex="1" parent="1">
          <mxGeometry x="140" y="660" width="60" height="20" as="geometry" />
        </mxCell>
        <mxCell id="oAigmpeFDJN5EbFYPB60-428" value="&lt;span style=&quot;border-bottom: 1px dotted&quot;&gt;parking_id&lt;/span&gt;" style="ellipse;whiteSpace=wrap;html=1;align=center;" vertex="1" parent="1">
          <mxGeometry x="140" y="320" width="60" height="20" as="geometry" />
        </mxCell>
        <mxCell id="oAigmpeFDJN5EbFYPB60-430" value="&lt;span style=&quot;border-bottom: 1px dotted&quot;&gt;staff_id&lt;/span&gt;" style="ellipse;whiteSpace=wrap;html=1;align=center;" vertex="1" parent="1">
          <mxGeometry x="190" y="1090" width="60" height="20" as="geometry" />
        </mxCell>
        <mxCell id="oAigmpeFDJN5EbFYPB60-431" value="" style="fontSize=12;html=1;endArrow=none;rounded=0;endFill=0;startSize=0;endSize=0;entryX=0.5;entryY=1;entryDx=0;entryDy=0;" edge="1" parent="1" target="oAigmpeFDJN5EbFYPB60-436">
          <mxGeometry width="100" height="100" relative="1" as="geometry">
            <mxPoint x="440" y="1070" as="sourcePoint" />
            <mxPoint x="450" y="1060" as="targetPoint" />
          </mxGeometry>
        </mxCell>
        <mxCell id="oAigmpeFDJN5EbFYPB60-432" value="" style="fontSize=12;html=1;endArrow=none;rounded=0;endFill=0;startSize=0;endSize=0;exitX=0;exitY=0;exitDx=0;exitDy=0;entryX=0.5;entryY=1;entryDx=0;entryDy=0;" edge="1" parent="1" source="oAigmpeFDJN5EbFYPB60-162" target="oAigmpeFDJN5EbFYPB60-435">
          <mxGeometry width="100" height="100" relative="1" as="geometry">
            <mxPoint x="340" y="1080" as="sourcePoint" />
            <mxPoint x="310" y="1070" as="targetPoint" />
          </mxGeometry>
        </mxCell>
        <mxCell id="oAigmpeFDJN5EbFYPB60-433" value="" style="fontSize=12;html=1;endArrow=none;rounded=0;endFill=0;startSize=0;endSize=0;exitX=0.5;exitY=0;exitDx=0;exitDy=0;entryX=0.5;entryY=1;entryDx=0;entryDy=0;" edge="1" parent="1" source="oAigmpeFDJN5EbFYPB60-162" target="oAigmpeFDJN5EbFYPB60-434">
          <mxGeometry width="100" height="100" relative="1" as="geometry">
            <mxPoint x="387.75" y="1080" as="sourcePoint" />
            <mxPoint x="395" y="1060" as="targetPoint" />
          </mxGeometry>
        </mxCell>
        <mxCell id="oAigmpeFDJN5EbFYPB60-434" value="org_&lt;br&gt;student_id" style="ellipse;whiteSpace=wrap;html=1;align=center;fontStyle=4;" vertex="1" parent="1">
          <mxGeometry x="350" y="1010" width="60" height="40" as="geometry" />
        </mxCell>
        <mxCell id="oAigmpeFDJN5EbFYPB60-435" value="&lt;span style=&quot;border-bottom: 1px dotted&quot;&gt;org_id&lt;/span&gt;" style="ellipse;whiteSpace=wrap;html=1;align=center;" vertex="1" parent="1">
          <mxGeometry x="290" y="1030" width="60" height="20" as="geometry" />
        </mxCell>
        <mxCell id="oAigmpeFDJN5EbFYPB60-436" value="&lt;span style=&quot;border-bottom: 1px dotted&quot;&gt;student_id&lt;br&gt;&lt;/span&gt;" style="ellipse;whiteSpace=wrap;html=1;align=center;" vertex="1" parent="1">
          <mxGeometry x="410" y="1030" width="60" height="20" as="geometry" />
        </mxCell>
        <mxCell id="oAigmpeFDJN5EbFYPB60-438" value="" style="fontSize=12;html=1;endArrow=none;rounded=0;endFill=0;startSize=0;endSize=0;entryX=0.5;entryY=1;entryDx=0;entryDy=0;" edge="1" parent="1" target="oAigmpeFDJN5EbFYPB60-442">
          <mxGeometry width="100" height="100" relative="1" as="geometry">
            <mxPoint x="440" y="1150" as="sourcePoint" />
            <mxPoint x="450" y="1140" as="targetPoint" />
          </mxGeometry>
        </mxCell>
        <mxCell id="oAigmpeFDJN5EbFYPB60-439" value="" style="fontSize=12;html=1;endArrow=none;rounded=0;endFill=0;startSize=0;endSize=0;exitX=0.5;exitY=0;exitDx=0;exitDy=0;entryX=0.5;entryY=1;entryDx=0;entryDy=0;" edge="1" parent="1" target="oAigmpeFDJN5EbFYPB60-440">
          <mxGeometry width="100" height="100" relative="1" as="geometry">
            <mxPoint x="390" y="1150" as="sourcePoint" />
            <mxPoint x="395" y="1140" as="targetPoint" />
          </mxGeometry>
        </mxCell>
        <mxCell id="oAigmpeFDJN5EbFYPB60-440" value="org_&lt;br&gt;teacher_id" style="ellipse;whiteSpace=wrap;html=1;align=center;fontStyle=4;" vertex="1" parent="1">
          <mxGeometry x="350" y="1110" width="60" height="30" as="geometry" />
        </mxCell>
        <mxCell id="oAigmpeFDJN5EbFYPB60-441" value="&lt;span style=&quot;border-bottom: 1px dotted&quot;&gt;org_id&lt;/span&gt;" style="ellipse;whiteSpace=wrap;html=1;align=center;" vertex="1" parent="1">
          <mxGeometry x="290" y="1110" width="60" height="20" as="geometry" />
        </mxCell>
        <mxCell id="oAigmpeFDJN5EbFYPB60-442" value="&lt;span style=&quot;border-bottom: 1px dotted&quot;&gt;teacher_id&lt;br&gt;&lt;/span&gt;" style="ellipse;whiteSpace=wrap;html=1;align=center;" vertex="1" parent="1">
          <mxGeometry x="410" y="1120" width="60" height="20" as="geometry" />
        </mxCell>
        <mxCell id="oAigmpeFDJN5EbFYPB60-443" value="" style="fontSize=12;html=1;endArrow=none;rounded=0;endFill=0;startSize=0;endSize=0;exitX=0;exitY=0;exitDx=0;exitDy=0;entryX=0.5;entryY=1;entryDx=0;entryDy=0;" edge="1" parent="1">
          <mxGeometry width="100" height="100" relative="1" as="geometry">
            <mxPoint x="340" y="1150" as="sourcePoint" />
            <mxPoint x="320" y="1130" as="targetPoint" />
          </mxGeometry>
        </mxCell>
        <mxCell id="oAigmpeFDJN5EbFYPB60-447" value="&lt;span style=&quot;border-bottom: 1px dotted&quot;&gt;dept_id&lt;/span&gt;" style="ellipse;whiteSpace=wrap;html=1;align=center;" vertex="1" parent="1">
          <mxGeometry x="710" y="770" width="60" height="20" as="geometry" />
        </mxCell>
      </root>
    </mxGraphModel>
  </diagram>
</mxfile>
